<svg xmlns="http://www.w3.org/2000/svg" xmlns:xlink="http://www.w3.org/1999/xlink" width="3000" zoomAndPan="magnify" viewBox="0 0 2250 2250.000011" height="3000" preserveAspectRatio="xMidYMid meet" version="1.0"><path fill="#853256" d="M 2181.066406 1123.589844 C 2181.207031 1699.378906 1703.796875 2176.558594 1131.386719 2175.238281 C 530.914062 2173.820312 63.832031 1677.003906 76.683594 1101.1875 C 89.453125 528.917969 539.15625 65.339844 1128.535156 66.207031 C 1722.792969 67.085938 2181.105469 536.578125 2181.066406 1123.589844 Z M 1129.554688 2143.292969 C 1676.988281 2145.546875 2146.066406 1695.5625 2149.03125 1127.828125 C 2151.996094 558.765625 1715.871094 115.730469 1155.699219 100.90625 C 554.789062 85.003906 108.503906 557.96875 108.617188 1125.53125 C 108.761719 1678.425781 565.15625 2143.574219 1129.554688 2143.292969 Z M 1129.554688 2143.292969 " fill-opacity="1" fill-rule="nonzero"/><path fill="#853256" d="M 1145.488281 2113.019531 C 895.894531 2109.96875 684.777344 2036.171875 502.582031 1886.5625 C 327.78125 1743.015625 214.390625 1559.203125 162.285156 1338.722656 C 141.769531 1251.917969 135.0625 1163.308594 139.96875 1074.390625 C 150.59375 884.296875 206.800781 708.898438 315.777344 552.082031 C 453.042969 354.695312 639.167969 226.382812 871.324219 164.332031 C 972.046875 137.378906 1074.753906 128.03125 1178.3125 133.277344 C 1358.804688 142.414062 1527.125 192.464844 1678.121094 293.765625 C 1874.332031 425.386719 2008.757812 603.421875 2076.753906 830.558594 C 2092.738281 884.625 2104.304688 939.617188 2111.453125 995.542969 C 2119.367188 1056.78125 2121.429688 1118.21875 2117.636719 1179.851562 C 2106.445312 1368.15625 2045.472656 1539.273438 1935.882812 1693.304688 C 1811.046875 1868.675781 1646.488281 1990.039062 1443.808594 2060.542969 C 1409.9375 2072.417969 1375.476562 2082.203125 1340.421875 2089.902344 C 1305.367188 2097.597656 1269.976562 2103.152344 1234.25 2106.5625 C 1200.144531 2109.753906 1165.984375 2111.558594 1145.488281 2113.019531 Z M 1585.414062 1628.234375 L 1581.371094 1626.046875 C 1578.277344 1632.289062 1573.257812 1638.277344 1572.433594 1644.789062 C 1569.597656 1667.671875 1591.414062 1688.765625 1618.070312 1690.183594 C 1676.988281 1693.261719 1733.945312 1643 1738.652344 1583.789062 C 1740.753906 1557.273438 1740.753906 1557.714844 1766.800781 1557.839844 C 1826.808594 1558.125 1886.800781 1557.839844 1946.792969 1558.125 C 1953.546875 1558.125 1956.722656 1555.769531 1959.675781 1550.082031 C 2025.980469 1424.875 2058.324219 1290.699219 2064.128906 1149.859375 C 2066.78125 1085.425781 2061.078125 1021.375 2050.011719 957.738281 C 2042.027344 911.773438 2030.730469 866.636719 2016.113281 822.332031 C 2001.5 778.027344 1983.726562 735.027344 1962.796875 693.335938 C 1958.851562 685.460938 1954.101562 683.40625 1945.859375 683.503906 C 1882.191406 683.816406 1818.523438 683.675781 1754.855469 683.675781 C 1738.894531 683.675781 1738.894531 683.675781 1739.050781 668.070312 C 1739.730469 600.5 1682.078125 546.292969 1614.992188 551.402344 C 1613.671875 551.492188 1612.359375 551.632812 1611.050781 551.828125 C 1609.738281 552.023438 1608.441406 552.269531 1607.152344 552.570312 C 1605.863281 552.871094 1604.589844 553.222656 1603.328125 553.628906 C 1602.066406 554.03125 1600.824219 554.484375 1599.601562 554.992188 C 1598.378906 555.496094 1597.175781 556.046875 1596 556.648438 C 1594.820312 557.253906 1593.667969 557.902344 1592.542969 558.597656 C 1591.414062 559.292969 1590.320312 560.03125 1589.253906 560.816406 C 1588.1875 561.601562 1587.15625 562.425781 1586.15625 563.292969 C 1585.15625 564.164062 1584.195312 565.070312 1583.269531 566.015625 C 1582.34375 566.960938 1581.457031 567.945312 1580.609375 568.960938 C 1579.765625 569.980469 1578.960938 571.03125 1578.199219 572.113281 C 1577.441406 573.195312 1576.722656 574.308594 1576.054688 575.449219 C 1575.382812 576.589844 1574.761719 577.757812 1574.183594 578.949219 C 1573.609375 580.140625 1573.082031 581.351562 1572.601562 582.585938 C 1572.125 583.820312 1571.699219 585.070312 1571.320312 586.339844 C 1570.945312 587.609375 1570.621094 588.890625 1570.347656 590.1875 C 1567.695312 602.796875 1574.066406 614.304688 1585.953125 618.558594 C 1581.699219 598.96875 1591.429688 581.265625 1609.132812 576.582031 C 1626.328125 572.027344 1642.515625 582.582031 1648.601562 602.316406 C 1656.230469 627.042969 1641.125 654.179688 1615.558594 661.65625 C 1582.777344 671.246094 1546.542969 653.527344 1534.5 620.773438 C 1531.28125 612.035156 1527.011719 610.132812 1518.710938 610.230469 C 1485.65625 610.601562 1452.589844 610.230469 1419.535156 610.417969 C 1407.925781 610.535156 1396.460938 609.304688 1385.144531 606.726562 C 1373.824219 604.148438 1362.960938 600.289062 1352.546875 595.152344 C 1266.550781 552.59375 1231.964844 469.71875 1278.367188 382.046875 C 1279.289062 379.839844 1280.035156 377.574219 1280.609375 375.253906 C 1234.957031 397.285156 1194.074219 423.160156 1159.105469 458.214844 C 1149.726562 467.605469 1148.195312 474.3125 1155.261719 485.933594 C 1173.503906 515.9375 1184.597656 548.109375 1180.414062 584.285156 C 1175.957031 622.589844 1133.203125 660.011719 1087.351562 631.355469 C 1064.058594 616.800781 1051.589844 582.171875 1061.914062 551.003906 C 1071.277344 522.746094 1084.527344 495.765625 1096.925781 466.15625 C 1064.597656 425.515625 1020.789062 394.828125 967.351562 374.429688 C 971.054688 381.917969 973.90625 387.609375 976.683594 393.355469 C 995.566406 432.464844 996.417969 472.101562 980.457031 512.375 C 958.769531 567.105469 896.761719 609.835938 837.5625 610.261719 C 798.820312 610.542969 760.074219 610.261719 721.234375 610.261719 C 719.703125 614.289062 718.398438 617.652344 717.132812 621 C 704.578125 652.605469 686.691406 664.507812 652.644531 664.125 C 613.023438 663.6875 591.203125 627.042969 609.871094 592.328125 C 620.753906 572.101562 648.316406 569.84375 661.210938 589.125 C 666.460938 596.941406 667.9375 607.28125 671.300781 616.96875 C 679.101562 613.75 681.328125 606.132812 681.699219 597.847656 C 682.789062 574.015625 661.835938 552.453125 637.71875 551.386719 C 594.183594 549.558594 562.535156 570.695312 536.730469 603.039062 C 520.824219 622.984375 516.667969 647.015625 515.222656 671.574219 C 514.613281 681.660156 510.527344 684.015625 500.851562 683.945312 C 437.597656 683.503906 374.324219 683.789062 311.070312 683.617188 C 304.414062 683.617188 300.074219 684.753906 296.683594 691.535156 C 282.769531 719.363281 270.203125 747.789062 258.980469 776.8125 C 247.757812 805.832031 237.933594 835.320312 229.503906 865.269531 C 221.074219 895.222656 214.078125 925.503906 208.515625 956.117188 C 202.953125 986.730469 198.847656 1017.539062 196.203125 1048.542969 C 192.929688 1086.757812 192.121094 1125.023438 193.785156 1163.339844 C 195.445312 1201.65625 199.5625 1239.707031 206.132812 1277.492188 C 210.152344 1301.0625 215.09375 1324.441406 220.957031 1347.621094 C 226.816406 1370.800781 233.582031 1393.714844 241.246094 1416.363281 C 248.914062 1439.011719 257.457031 1461.324219 266.882812 1483.300781 C 276.308594 1505.273438 286.582031 1526.84375 297.707031 1548.011719 C 301.71875 1555.644531 306.0625 1558.222656 314.515625 1558.167969 C 376.550781 1557.8125 438.601562 1557.984375 500.640625 1557.984375 L 513.320312 1557.984375 C 514.554688 1567.6875 516.046875 1575.730469 516.527344 1583.832031 C 520.117188 1643.738281 575.941406 1693.53125 636.003906 1690.226562 C 663.738281 1688.695312 683.898438 1667.527344 680.847656 1643.113281 C 679.953125 1636.023438 677.667969 1630.019531 668.703125 1629.210938 C 668.589844 1631.480469 668.460938 1633.085938 668.460938 1634.6875 C 668.304688 1658.125 649.054688 1671.570312 626.953125 1663.246094 C 612.765625 1657.898438 603.757812 1647 603.234375 1632.121094 C 602.679688 1616.035156 606.425781 1600.386719 621.234375 1590.355469 C 646.417969 1573.332031 692.734375 1576.171875 710.3125 1608.414062 C 714.324219 1615.765625 717.84375 1623.394531 721.886719 1631.480469 C 757.734375 1631.480469 794.050781 1630.902344 830.355469 1631.625 C 878.132812 1632.574219 920.296875 1647.230469 952.867188 1684.339844 C 986.601562 1722.785156 998.984375 1766.621094 987.238281 1816.570312 C 983.921875 1830.671875 977.648438 1844.078125 972.445312 1858.617188 C 1016.675781 1837.339844 1057.476562 1812.710938 1089.492188 1775.429688 C 1094.417969 1769.753906 1094.515625 1765.5 1091.765625 1759.269531 C 1082.289062 1737.792969 1072.683594 1716.34375 1064.3125 1694.425781 C 1062.15625 1688.925781 1060.496094 1683.277344 1059.339844 1677.480469 C 1058.179688 1671.683594 1057.542969 1665.832031 1057.421875 1659.925781 C 1057.300781 1654.015625 1057.699219 1648.140625 1058.617188 1642.304688 C 1059.539062 1636.464844 1060.964844 1630.753906 1062.894531 1625.167969 C 1072.738281 1595.988281 1105.28125 1579.773438 1134.820312 1589.164062 C 1167.886719 1599.761719 1188.726562 1637.597656 1181.859375 1673.175781 C 1178.894531 1688.308594 1174.714844 1703.101562 1169.320312 1717.550781 C 1163.929688 1732 1157.390625 1745.910156 1149.714844 1759.285156 C 1146.125 1765.625 1146.253906 1769.527344 1151.035156 1775.230469 C 1182.355469 1812.527344 1221.792969 1838.21875 1266.113281 1857.097656 C 1271.191406 1859.253906 1276.523438 1860.800781 1283.816406 1863.355469 C 1279.773438 1855.539062 1276.636719 1850.019531 1273.984375 1844.261719 C 1249.867188 1791.957031 1251.742188 1741.296875 1288.015625 1695.449219 C 1320.375 1654.519531 1363.402344 1631.863281 1416.597656 1631.523438 C 1455.710938 1631.285156 1494.835938 1631.523438 1533.621094 1631.523438 C 1541.636719 1605.367188 1555.410156 1590.382812 1577.199219 1583.519531 C 1610.792969 1572.878906 1640.785156 1586.269531 1649.308594 1615.804688 C 1655.394531 1636.902344 1640.699219 1669.003906 1613.644531 1666.097656 C 1594.054688 1663.910156 1584.707031 1652.832031 1585.414062 1628.234375 Z M 332.277344 1604.996094 C 455.699219 1823.5625 755.238281 2064.132812 1148.917969 2057.621094 C 1505.320312 2051.734375 1795.242188 1832.414062 1927.742188 1604.898438 L 1775.949219 1604.898438 C 1775.121094 1606.402344 1774.4375 1607.972656 1773.90625 1609.605469 C 1766.230469 1646.929688 1745.292969 1675.460938 1715.148438 1697.761719 C 1708.902344 1702.464844 1702.371094 1706.722656 1695.546875 1710.539062 C 1688.726562 1714.355469 1681.675781 1717.691406 1674.398438 1720.550781 C 1667.125 1723.410156 1659.6875 1725.761719 1652.09375 1727.613281 C 1644.5 1729.460938 1636.8125 1730.789062 1629.039062 1731.59375 C 1594.90625 1735.125 1555.269531 1711.734375 1537.847656 1679.105469 C 1535.917969 1675.5 1531.578125 1670.59375 1528.386719 1670.664062 C 1483.984375 1671.019531 1439.296875 1669.246094 1395.25 1673.757812 C 1342.136719 1679.148438 1285.40625 1734.898438 1300.203125 1804.949219 C 1314.671875 1873.414062 1392.597656 1905.855469 1445.253906 1863.9375 C 1465.46875 1847.835938 1476.792969 1825.777344 1471.300781 1799.359375 C 1466.125 1774.480469 1450.84375 1757.683594 1424.601562 1752.292969 C 1401.902344 1747.625 1380.011719 1760.804688 1379.84375 1779.96875 C 1382.054688 1778.132812 1384.378906 1776.460938 1386.820312 1774.945312 C 1405.648438 1764.789062 1431.636719 1773.527344 1436.871094 1791.8125 C 1442.984375 1813.09375 1428.132812 1838.96875 1406.640625 1844.445312 C 1381.175781 1850.929688 1350.648438 1835.28125 1339.753906 1809.789062 C 1323.496094 1771.753906 1342.746094 1721.167969 1401.6875 1712.710938 C 1462.195312 1704.015625 1515.433594 1756.789062 1510.921875 1818.171875 C 1506.835938 1873.34375 1454.675781 1923.832031 1399.136719 1925.164062 C 1340.875 1926.582031 1286.027344 1912.398438 1233.609375 1887.246094 C 1190.371094 1866.433594 1155.402344 1834.941406 1121.300781 1803.445312 C 1104.84375 1817.945312 1089.777344 1833.707031 1072.34375 1846.117188 C 1016.902344 1885.585938 956.753906 1913.84375 888.363281 1924.144531 C 836.140625 1932.015625 785.46875 1911.460938 758.386719 1866.6875 C 736.285156 1830.144531 737.109375 1781.1875 761.921875 1748.289062 C 786.730469 1715.394531 820.777344 1706.667969 859.804688 1714.839844 C 904.207031 1724.144531 930.082031 1774.335938 910.875 1812.722656 C 897.894531 1838.65625 855.222656 1861.097656 826.636719 1834.515625 C 815.289062 1824.03125 810.222656 1811.476562 814.253906 1796.054688 C 818.507812 1779.882812 829.859375 1771.285156 845.660156 1769.953125 C 854.058594 1769.242188 862.683594 1772.222656 875.636719 1774.210938 C 867.492188 1766.859375 862.484375 1759.808594 855.664062 1756.617188 C 825.078125 1742.246094 785.878906 1765.300781 781.070312 1798.851562 C 773.980469 1848.332031 816.792969 1884.847656 862.898438 1883.089844 C 919.726562 1880.933594 963.972656 1821.746094 951.503906 1766.023438 C 938.964844 1709.917969 892.234375 1671.570312 834.597656 1670.59375 C 799.511719 1670.011719 764.402344 1670.335938 729.320312 1669.699219 C 722.042969 1669.570312 719.0625 1672.238281 715.800781 1678.410156 C 697.527344 1713.050781 668.476562 1732.148438 629.265625 1731.496094 C 576.902344 1730.757812 537.183594 1703.503906 506.242188 1664.082031 C 492.964844 1647.144531 485.730469 1625.480469 475.246094 1604.980469 Z M 871.054688 463.449219 C 867.410156 464.765625 864.203125 466.144531 860.882812 467.109375 C 839.605469 473.363281 821.289062 465.148438 815.148438 446.636719 C 805.402344 417.285156 833.929688 386.644531 865.054688 392.957031 C 891.609375 398.347656 908.351562 414.320312 914.945312 440.324219 C 922.039062 468.015625 912.464844 491.394531 891.710938 509.167969 C 844.625 549.558594 766.347656 526.859375 747.210938 466.910156 C 730.1875 413.652344 751.464844 348.257812 815.304688 321.316406 C 844.257812 309.101562 874.234375 311.628906 904.136719 316.324219 C 985 328.992188 1054.808594 362.769531 1110.546875 423.683594 C 1114.800781 428.335938 1119.226562 432.863281 1124.730469 438.621094 C 1131.160156 431.527344 1136.082031 425.570312 1141.640625 420.179688 C 1147.203125 414.789062 1153.21875 409.894531 1159.175781 404.945312 C 1222.503906 352.144531 1293.546875 318.082031 1377.175781 312.734375 C 1432.21875 309.1875 1484.296875 340.140625 1503.007812 390.203125 C 1528.371094 458.101562 1487.800781 530.875 1411.519531 529.457031 C 1367.542969 528.632812 1332.644531 492.457031 1334.644531 450.210938 C 1336.488281 411.144531 1374.125 383.804688 1410.839844 394.886719 C 1426.96875 399.765625 1438.0625 415.171875 1438.121094 432.75 C 1438.121094 450.582031 1429.765625 464.085938 1412.980469 466.640625 C 1402.113281 468.300781 1390.410156 464.414062 1379.121094 463.007812 C 1379.121094 461.449219 1378.851562 462.710938 1379.121094 463.816406 C 1385.601562 487.167969 1421.5625 496.574219 1444.773438 481.039062 C 1466.859375 466.269531 1477.628906 436.890625 1470.4375 411.015625 C 1460.875 376.683594 1420.984375 350.339844 1384.550781 354.710938 C 1336.503906 360.46875 1300.710938 400.105469 1298.242188 453.035156 C 1295.773438 505.964844 1332.433594 556.226562 1386.199219 565.105469 C 1434.347656 573.066406 1484.082031 571.007812 1531.707031 573.304688 C 1536.65625 563.375 1539.464844 556.140625 1543.550781 549.757812 C 1564.632812 516.800781 1610.609375 501.425781 1654.132812 513.722656 C 1717.828125 531.710938 1761.066406 570.824219 1777.269531 636.71875 L 1930.933594 636.71875 C 1927.585938 630.773438 1925.257812 625.566406 1922.054688 621.113281 C 1894.035156 583.195312 1868.019531 543.515625 1837.289062 507.90625 C 1737.632812 392.433594 1615.589844 307.882812 1473.34375 252.78125 C 1374.039062 214.308594 1270.722656 196.476562 1164.625 191.1875 C 1067.5625 186.335938 972.203125 194.804688 878.53125 220.890625 C 672.5625 278.246094 504.765625 391.722656 376.679688 563.234375 C 359.300781 586.484375 343.839844 611.15625 326.347656 636.859375 L 478.75 636.859375 C 488.269531 592.882812 514.058594 561.089844 549.679688 536.378906 C 571.046875 521.527344 594.636719 511.679688 620.695312 510.105469 C 667.257812 507.269531 700.367188 527.414062 718.980469 571.105469 C 754.019531 571.105469 789.101562 571.546875 824.167969 570.878906 C 837.617188 570.71875 850.878906 569.082031 863.960938 565.972656 C 946.355469 545.671875 980.289062 449.277344 927.402344 386.601562 C 890.617188 342.980469 821.628906 344.722656 791.8125 390.488281 C 772.261719 420.476562 773.113281 472.003906 820.664062 486.429688 C 839.347656 492.046875 867.195312 485.890625 871.054688 463.449219 Z M 1121.058594 1730.429688 C 1126.378906 1719.875 1131.699219 1711.222656 1135.246094 1701.902344 C 1141.910156 1684.4375 1147.003906 1666.621094 1141.230469 1647.539062 C 1136.746094 1632.746094 1125.457031 1622.617188 1114.164062 1624.164062 C 1104.433594 1625.496094 1097.75 1637.46875 1096.957031 1653.117188 C 1095.566406 1681.105469 1106.941406 1704.964844 1121.058594 1730.429688 Z M 1121.441406 502.429688 C 1113.765625 519.851562 1106.402344 534.519531 1100.898438 549.839844 C 1098.125 558.34375 1096.941406 567.066406 1097.351562 576 C 1097.695312 589.816406 1106.050781 599.890625 1116.050781 600.996094 C 1127.796875 602.300781 1136.917969 595.324219 1141.0625 580.921875 C 1149.402344 552.054688 1135.117188 528.847656 1121.441406 502.429688 Z M 1121.441406 502.429688 " fill-opacity="1" fill-rule="nonzero"/><path fill="#853256" d="M 1286.625 1550.59375 C 1281.601562 1540.476562 1287.535156 1538.277344 1294.101562 1535.613281 C 1312.996094 1527.964844 1327.042969 1515.539062 1328.148438 1493.863281 C 1328.433594 1489.210938 1328.214844 1484.582031 1327.496094 1479.976562 C 1326.78125 1475.371094 1325.578125 1470.898438 1323.890625 1466.554688 C 1306.117188 1423.996094 1287.136719 1381.804688 1269.21875 1339.230469 C 1266.070312 1331.757812 1261.105469 1332.648438 1255.542969 1332.648438 L 1032.820312 1332.648438 C 1011.539062 1332.648438 990.375 1333.019531 969.167969 1332.480469 C 960.796875 1332.265625 956.128906 1334.324219 952.964844 1342.835938 C 937.628906 1384.1875 921.429688 1425.214844 905.839844 1466.480469 C 894.492188 1496.640625 901.964844 1518.972656 928.296875 1537.1875 C 931.417969 1539.355469 932.453125 1544.535156 935.671875 1550.605469 L 711.078125 1550.605469 C 706.949219 1542.277344 708.679688 1537.839844 718.085938 1535.769531 C 753.152344 1528.164062 778.25 1506.714844 793.117188 1475.164062 C 812.609375 1433.8125 829.914062 1391.464844 847.476562 1349.175781 C 938.175781 1131.183594 1028.820312 913.179688 1119.414062 695.164062 C 1122.691406 687.277344 1122.804688 674.652344 1135.132812 674.4375 C 1147.898438 674.199219 1147.175781 687.390625 1150.566406 695.007812 C 1246.386719 910.015625 1341.953125 1125.144531 1437.253906 1340.394531 C 1455.328125 1381.125 1473.65625 1421.753906 1491.160156 1462.722656 C 1507.164062 1500.0625 1529.648438 1529.527344 1572.875 1536.761719 C 1575.5 1537.199219 1577.355469 1542.207031 1579.554688 1545.089844 C 1576.71875 1546.945312 1573.738281 1550.421875 1570.816406 1550.421875 C 1476.195312 1550.6875 1381.464844 1550.742188 1286.625 1550.59375 Z M 986.273438 1256.085938 L 1239.144531 1256.085938 L 1108.886719 943.691406 C 1067.546875 1048.925781 1027.132812 1151.960938 986.273438 1256.085938 Z M 986.273438 1256.085938 " fill-opacity="1" fill-rule="nonzero"/><path fill="#853256" d="M 562.917969 1064.871094 C 607.757812 1047.847656 650.871094 1031.433594 698.125 1031.578125 C 703.347656 1031.578125 709.078125 1031.917969 713.730469 1034.03125 C 735.832031 1044.171875 760.542969 1041.492188 783.113281 1048.726562 C 820.90625 1060.828125 844.484375 1092.535156 839.730469 1124.054688 C 834.058594 1161.464844 800.449219 1192.375 762.402344 1192.644531 C 746.941406 1192.757812 731.460938 1187.992188 715.972656 1185.554688 C 710.027344 1184.632812 704.039062 1183.367188 698.082031 1183.398438 C 656.191406 1183.539062 619.308594 1170.460938 587.429688 1143.050781 C 585.246094 1141.164062 580.335938 1140.953125 577.230469 1141.929688 C 550.984375 1150.300781 525.066406 1159.464844 496.851562 1159.039062 C 461.203125 1158.515625 430.558594 1148.328125 410.558594 1117.898438 C 376.738281 1121.742188 346.40625 1117.699219 324.019531 1089.9375 C 306.839844 1068.660156 316.121094 1039.464844 341.597656 1034.398438 C 356.265625 1031.5625 369.96875 1036.199219 382.113281 1043.875 C 385.277344 1045.875 385.25 1052.941406 386.679688 1057.679688 C 382.425781 1058.730469 377.941406 1061.195312 374.011719 1060.515625 C 367.742188 1059.410156 362.027344 1055.523438 355.785156 1054.003906 C 342.164062 1050.699219 333 1060.359375 337.839844 1073.597656 C 339.0625 1076.769531 340.699219 1079.710938 342.753906 1082.421875 C 344.808594 1085.132812 347.199219 1087.507812 349.925781 1089.542969 C 366.949219 1101.742188 386.496094 1103.726562 405.363281 1102.152344 C 409.988281 1089.527344 414.332031 1077.921875 418.5 1066.277344 C 426.304688 1044.414062 444.136719 1034.867188 464.945312 1031.902344 C 499.304688 1027.023438 529.933594 1038.128906 557.355469 1058.628906 C 559.753906 1060.445312 561.484375 1063.238281 562.917969 1064.871094 Z M 778.988281 1127.289062 C 769.582031 1141.320312 759.550781 1156.273438 749.691406 1171 C 786.007812 1171.933594 812.804688 1151.664062 815.402344 1120.90625 C 817.53125 1095.769531 796.519531 1074.21875 766.871094 1069.425781 C 776.035156 1081.878906 786.730469 1094.960938 795.570312 1109.316406 C 798.222656 1113.574219 797.640625 1122.75 794.648438 1126.75 C 792.535156 1129.546875 783.808594 1127.320312 778.988281 1127.320312 Z M 732.65625 1097.5 C 730.484375 1099.613281 725.660156 1103.753906 721.488281 1108.480469 C 716.59375 1114.027344 712.765625 1120.566406 707.574219 1125.785156 C 700.410156 1132.980469 697.871094 1144.484375 703.203125 1152.457031 C 709.277344 1161.523438 717.519531 1159.976562 725.988281 1156.558594 C 742.941406 1149.71875 749.863281 1135.066406 753.621094 1118.964844 C 756.105469 1108.335938 746.941406 1097.667969 732.65625 1097.5 Z M 537.90625 1069.894531 C 510.953125 1052.175781 483.246094 1041.519531 453.425781 1059.566406 C 439.242188 1068.078125 434.558594 1082.886719 436.234375 1099.941406 L 451.964844 1096.675781 C 456.363281 1077.027344 466.449219 1065.253906 482.621094 1066.277344 C 498.128906 1067.269531 513.351562 1072.503906 528.699219 1075.878906 L 527.890625 1078.875 Z M 564.265625 1125.671875 C 557.597656 1115.671875 549.128906 1114.324219 538.234375 1118 C 516.230469 1125.476562 493.589844 1129.019531 472.054688 1117.542969 C 461.371094 1111.871094 452.390625 1113.074219 442.261719 1117.289062 C 461.257812 1142.78125 489.402344 1144.65625 564.265625 1125.671875 Z M 609.660156 1093.046875 L 610.140625 1097.628906 C 614.753906 1097.074219 619.832031 1097.628906 623.917969 1095.796875 C 646.316406 1086.039062 669.496094 1075.085938 693.785156 1081.738281 C 708.113281 1085.667969 719.320312 1084.960938 732.414062 1078.460938 C 721.886719 1069.453125 712.820312 1058.402344 696.949219 1067.226562 C 695.289062 1068.148438 692.988281 1067.851562 690.988281 1068.175781 C 662.746094 1072.800781 634.542969 1077.527344 609.6875 1093.085938 Z M 600.835938 1131.09375 C 621.066406 1149.632812 660.957031 1163.410156 683.839844 1160.089844 C 681.953125 1153.988281 680.082031 1147.929688 678.164062 1141.859375 C 677.695312 1142.894531 677.242188 1143.945312 676.746094 1144.980469 C 660.519531 1140.796875 643.125 1138.9375 628.515625 1131.601562 C 618.171875 1126.425781 610.695312 1125.007812 600.863281 1131.136719 Z M 640.742188 1113.925781 C 661.296875 1127.476562 688.28125 1122.4375 693.984375 1103.753906 C 674.789062 1099.316406 658.191406 1106.71875 640.742188 1113.925781 Z M 653.507812 1056.429688 C 653.355469 1055.75 653.183594 1055.082031 653.011719 1054.402344 L 586.195312 1073.792969 L 586.195312 1077.722656 C 589.855469 1078.5625 594.167969 1081.085938 597.0625 1079.953125 C 616.085938 1072.519531 634.8125 1064.359375 653.625 1056.429688 Z M 570.933594 1108.054688 C 582.464844 1122.011719 582.464844 1122.011719 596.609375 1113.191406 C 589.402344 1105.019531 581.640625 1099.996094 571.046875 1108.054688 Z M 570.933594 1108.054688 " fill-opacity="1" fill-rule="nonzero"/><path fill="#853256" d="M 1676.546875 1138.128906 C 1640.203125 1165.183594 1602.238281 1187.453125 1554.175781 1183.523438 C 1548.503906 1183.070312 1542.289062 1185.070312 1536.871094 1187.285156 C 1490.253906 1206.28125 1433.3125 1180.746094 1419.933594 1134.554688 C 1419.457031 1132.894531 1419.046875 1131.21875 1418.703125 1129.527344 C 1418.359375 1127.835938 1418.082031 1126.136719 1417.871094 1124.421875 C 1417.664062 1122.710938 1417.519531 1120.992188 1417.445312 1119.265625 C 1417.371094 1117.542969 1417.363281 1115.816406 1417.421875 1114.09375 C 1417.480469 1112.367188 1417.609375 1110.648438 1417.804688 1108.933594 C 1418 1107.21875 1418.261719 1105.515625 1418.59375 1103.820312 C 1418.921875 1102.125 1419.316406 1100.449219 1419.777344 1098.785156 C 1420.238281 1097.121094 1420.765625 1095.480469 1421.355469 1093.859375 C 1421.945312 1092.234375 1422.597656 1090.640625 1423.3125 1089.070312 C 1424.027344 1087.5 1424.804688 1085.960938 1425.640625 1084.449219 C 1426.476562 1082.941406 1427.371094 1081.464844 1428.324219 1080.027344 C 1429.277344 1078.585938 1430.285156 1077.1875 1431.347656 1075.828125 C 1432.410156 1074.46875 1433.523438 1073.152344 1434.6875 1071.878906 C 1435.855469 1070.605469 1437.066406 1069.378906 1438.328125 1068.203125 C 1439.589844 1067.027344 1440.898438 1065.898438 1442.246094 1064.824219 C 1443.597656 1063.75 1444.988281 1062.730469 1446.417969 1061.765625 C 1465.484375 1048.996094 1486.507812 1042.554688 1509.660156 1043.789062 C 1512.851562 1043.960938 1516.753906 1044.769531 1519.179688 1043.363281 C 1546.558594 1027.519531 1575.570312 1029.179688 1604.382812 1036.585938 C 1633.632812 1044.132812 1662.332031 1053.835938 1692.960938 1063.113281 C 1718.367188 1049.238281 1745.449219 1031.902344 1779.210938 1031.390625 C 1821.429688 1030.726562 1841.332031 1056.160156 1848.921875 1093.625 C 1849.40625 1095.996094 1849.40625 1098.449219 1849.746094 1102.136719 C 1873.308594 1103.003906 1895.964844 1102.253906 1913.585938 1083.300781 C 1920.25 1076.207031 1923.753906 1067.59375 1918.195312 1058.957031 C 1912.164062 1049.578125 1903.15625 1053.804688 1895.097656 1056.785156 C 1891.296875 1058.203125 1887.664062 1061.140625 1883.90625 1061.210938 C 1879.734375 1061.296875 1873.296875 1060.003906 1871.90625 1057.265625 C 1870.34375 1054.175781 1871.90625 1047.335938 1874.558594 1044.65625 C 1886.984375 1032.640625 1912.109375 1030.46875 1927.273438 1039.152344 C 1944.296875 1048.871094 1946.78125 1070.089844 1933.375 1087.78125 C 1919.726562 1105.785156 1901.496094 1114.863281 1879.464844 1117.132812 C 1870.601562 1118.042969 1861.664062 1118.550781 1852.839844 1119.84375 C 1851.09375 1120.039062 1849.414062 1120.492188 1847.808594 1121.203125 C 1846.203125 1121.914062 1844.738281 1122.851562 1843.417969 1124.011719 C 1808.605469 1160.074219 1766.316406 1163.960938 1720.707031 1152.386719 C 1705.925781 1148.640625 1691.597656 1143.050781 1676.546875 1138.128906 Z M 1479.558594 1127.589844 L 1458.988281 1127.589844 C 1459.5 1121.914062 1458.207031 1115.117188 1460.859375 1110.691406 C 1469.511719 1096.195312 1479.601562 1082.546875 1488.410156 1069.625 C 1459.851562 1074.914062 1437.339844 1098.476562 1440.773438 1120.863281 C 1446.078125 1154.667969 1471.980469 1174.132812 1505.078125 1170.332031 C 1496.355469 1155.707031 1487.359375 1140.613281 1479.558594 1127.589844 Z M 1502.835938 1113.488281 C 1504.722656 1133.675781 1513.164062 1145.050781 1525.09375 1154.257812 C 1533.605469 1160.8125 1542.230469 1161.351562 1550.105469 1153.421875 C 1557.710938 1145.804688 1556.460938 1137.320312 1550.828125 1129.304688 C 1545.550781 1121.757812 1539.976562 1114.382812 1534.089844 1107.273438 C 1529.167969 1101.34375 1523.007812 1093.839844 1514.964844 1098.535156 C 1508.9375 1101.996094 1505.503906 1109.984375 1502.835938 1113.488281 Z M 1735.660156 1079.609375 C 1749.847656 1066.714844 1769.507812 1061.707031 1784.332031 1067.28125 C 1797.78125 1072.320312 1805.203125 1082.007812 1805.328125 1096.804688 L 1820.679688 1100.09375 C 1825.375 1067.042969 1797.511719 1041.507812 1765.125 1049.777344 C 1749.152344 1053.863281 1734.144531 1061.695312 1716.269531 1068.800781 Z M 1695.316406 1125.304688 C 1739.121094 1144.925781 1802.859375 1142.964844 1815.898438 1117.488281 C 1805.96875 1113.046875 1796.972656 1111.542969 1785.9375 1116.539062 C 1765.59375 1125.730469 1743.378906 1125.050781 1722.863281 1118.097656 C 1710.382812 1113.785156 1703.445312 1118.082031 1695.316406 1125.289062 Z M 1522.128906 1079.382812 C 1531.253906 1081.597656 1540.117188 1086.886719 1546.660156 1084.816406 C 1578.761719 1074.617188 1607.105469 1081.980469 1635.179688 1099.558594 L 1645.109375 1092.25 C 1620.527344 1076.53125 1594.039062 1073.441406 1567.980469 1067.695312 C 1550.941406 1063.921875 1536.359375 1063.566406 1522.128906 1079.382812 Z M 1569.910156 1161.011719 C 1604.140625 1163.351562 1631.136719 1148.511719 1657.296875 1130.070312 C 1650.417969 1127.332031 1641.308594 1122.566406 1637.28125 1125.289062 C 1619.007812 1137.675781 1599.585938 1143.605469 1578.394531 1141.589844 C 1575.371094 1148.484375 1572.773438 1154.359375 1569.9375 1161.011719 Z M 1562.632812 1099.796875 C 1563.582031 1121.277344 1589.769531 1126.75 1613.773438 1111.148438 Z M 1604.355469 1055.109375 L 1603.886719 1057.4375 C 1622.171875 1064.757812 1640.386719 1072.332031 1658.871094 1079.144531 C 1661.921875 1080.261719 1666.191406 1078.066406 1669.90625 1077.398438 C 1669.824219 1076.25 1669.753906 1075.113281 1669.667969 1073.964844 Z M 1658.035156 1111.273438 C 1673.722656 1121.515625 1673.722656 1121.515625 1688.875 1108.335938 C 1677.9375 1102.734375 1666.886719 1096.179688 1658.035156 1111.273438 Z M 1757.636719 1105.371094 L 1757.847656 1100.492188 C 1748.273438 1104.292969 1739.292969 1088.078125 1727.703125 1102.832031 Z M 1691.839844 1090.039062 L 1715.0625 1092.648438 C 1715.191406 1091.429688 1715.304688 1090.195312 1715.417969 1088.972656 C 1708.59375 1087.980469 1702.820312 1077.9375 1691.839844 1090.039062 Z M 1691.839844 1090.039062 " fill-opacity="1" fill-rule="nonzero"/><path fill="#853256" d="M 1154.863281 1896.734375 C 1191.746094 1926.527344 1229.824219 1950.472656 1278.695312 1950.289062 C 1267.347656 1975.425781 1238.492188 1986.589844 1181.378906 1989.46875 C 1171.007812 2016.664062 1154.054688 2036.570312 1121.796875 2035.320312 C 1099.792969 2034.46875 1083.179688 2017.96875 1073.5625 1989.65625 C 1041.660156 1985.796875 1008.304688 1986.363281 982.003906 1963.15625 C 979.167969 1960.601562 978.046875 1955.976562 975.394531 1950.898438 C 1013.699219 1948.175781 1046.59375 1935.875 1074.328125 1912.90625 C 1086.402344 1902.976562 1095.125 1897.871094 1111.597656 1904.523438 C 1125.101562 1909.957031 1141.515625 1906.75 1154.863281 1896.734375 Z M 1154.863281 1896.734375 " fill-opacity="1" fill-rule="nonzero"/><path fill="#853256" d="M 1125.726562 1827.222656 C 1147.289062 1825.804688 1161.660156 1842.273438 1163.019531 1863.597656 C 1164.097656 1880.621094 1145.828125 1895.800781 1125.582031 1895.957031 C 1105.339844 1896.113281 1089.792969 1880.207031 1089.722656 1859.441406 C 1089.636719 1839.992188 1104.007812 1827.222656 1125.726562 1827.222656 Z M 1125.726562 1827.222656 " fill-opacity="1" fill-rule="nonzero"/><path fill="#853256" d="M 977.324219 282.546875 C 978.742188 272.429688 988.078125 265.890625 998.332031 260.953125 C 1019.003906 251.023438 1041.460938 250.5 1063.816406 249.277344 C 1067.703125 249.066406 1073.433594 246.1875 1074.855469 242.996094 C 1086.828125 216.296875 1107.367188 205.8125 1135.855469 208.621094 C 1160.976562 211.105469 1174.625 226.566406 1181.917969 249.476562 C 1217.382812 250.894531 1253.640625 250.257812 1278.964844 286.460938 C 1231.921875 289.992188 1195.011719 309.472656 1160.667969 335.078125 C 1159.421875 335.84375 1158.074219 336.3125 1156.625 336.480469 C 1155.175781 336.652344 1153.753906 336.511719 1152.367188 336.054688 C 1131.085938 326.949219 1111.085938 330.90625 1092.785156 340.398438 C 1074.34375 327.855469 1057.632812 313.8125 1038.621094 304.25 C 1019.8125 294.816406 998.757812 289.90625 977.324219 282.546875 Z M 977.324219 282.546875 " fill-opacity="1" fill-rule="nonzero"/><path fill="#853256" d="M 1128.378906 340.824219 C 1149.332031 340.824219 1165.519531 355.902344 1165.164062 374.871094 C 1164.824219 393.3125 1146.59375 409.539062 1126.503906 409.371094 C 1105.296875 409.183594 1089.75 394.164062 1089.707031 373.820312 C 1089.679688 354.425781 1105.667969 340.75 1128.378906 340.824219 Z M 1128.378906 340.824219 " fill-opacity="1" fill-rule="nonzero"/></svg>