<svg xmlns="http://www.w3.org/2000/svg" xmlns:xlink="http://www.w3.org/1999/xlink" width="3000" zoomAndPan="magnify" viewBox="0 0 2250 2250.000011" height="3000" preserveAspectRatio="xMidYMid meet" version="1.0"><path fill="#853256" d="M 1560.984375 841.601562 L 2227.449219 841.601562 L 2227.449219 1468.894531 L 1560.984375 1468.894531 Z M 2090.527344 1045.320312 C 2090.824219 1044.644531 2091.035156 1043.945312 2091.167969 1043.214844 C 2091.167969 1017.363281 2091.289062 991.5 2091.089844 965.648438 C 2091.089844 964.070312 2089.183594 961.710938 2087.605469 961.082031 C 2031.742188 938.40625 1974.59375 922.023438 1913.417969 924.703125 C 1884.324219 925.980469 1855.660156 929.113281 1827.867188 938.496094 C 1789.382812 951.4375 1754.003906 969.882812 1726 999.648438 C 1673.480469 1055.453125 1651.144531 1121.390625 1666.070312 1197.304688 C 1681.816406 1277.320312 1728.449219 1333.945312 1803.878906 1364.945312 C 1856.796875 1386.71875 1912.589844 1391.703125 1969.402344 1384.457031 C 2012.019531 1379.011719 2052.636719 1367.039062 2090.988281 1347.539062 C 2094.054688 1345.972656 2095.597656 1344.230469 2095.574219 1340.46875 C 2095.378906 1314.792969 2095.476562 1289.105469 2095.453125 1263.429688 C 2095.378906 1262.101562 2095.222656 1260.78125 2094.980469 1259.472656 C 2081.375 1266.894531 2068.523438 1274.632812 2054.972656 1281.179688 C 2008.460938 1303.757812 1960.160156 1318.664062 1907.488281 1313.867188 C 1873.960938 1310.804688 1841.492188 1303.746094 1813.371094 1284.53125 C 1760.980469 1248.746094 1739.683594 1198.011719 1746.835938 1135.765625 C 1752.25 1088.671875 1774.113281 1050.382812 1815.101562 1024.9375 C 1853.785156 1000.925781 1896.339844 991.863281 1941.617188 996.273438 C 1992.816406 1001.257812 2040.234375 1018.324219 2085.257812 1042.578125 C 2086.910156 1043.414062 2088.628906 1044.320312 2090.527344 1045.320312 Z M 2090.527344 1045.320312 " fill-opacity="1" fill-rule="nonzero"/><path fill="#853256" d="M 25.371094 841.601562 L 690.734375 841.601562 C 690.734375 843.617188 690.910156 845.625 690.910156 847.640625 C 690.910156 1052.699219 690.910156 1257.753906 690.910156 1462.808594 C 690.910156 1464.738281 690.746094 1466.667969 690.65625 1468.5 L 24.609375 1468.5 L 24.609375 1462.6875 C 24.609375 1257.832031 24.609375 1052.964844 24.609375 848.09375 C 24.738281 845.914062 24.992188 843.75 25.371094 841.601562 Z M 200.042969 930.316406 L 200.042969 1380.621094 C 201.53125 1380.730469 202.625 1380.863281 203.714844 1380.863281 C 262.441406 1380.863281 321.179688 1381.21875 379.910156 1380.742188 C 387.714844 1380.710938 395.496094 1380.226562 403.246094 1379.289062 C 411 1378.351562 418.671875 1376.96875 426.261719 1375.140625 C 433.851562 1373.3125 441.3125 1371.046875 448.636719 1368.351562 C 455.964844 1365.652344 463.113281 1362.542969 470.078125 1359.011719 C 538.96875 1324.21875 546.941406 1242.617188 514.835938 1194.273438 C 497.199219 1167.726562 471.984375 1152.226562 442.140625 1143.144531 C 440.210938 1142.558594 438.292969 1141.941406 435.527344 1141.070312 C 437.246094 1139.96875 437.832031 1139.546875 438.460938 1139.207031 C 509.667969 1100.390625 502.796875 1013.273438 461.445312 972.351562 C 431.933594 943.136719 394.859375 931.804688 354.859375 930.65625 C 305.339844 929.234375 255.75 930.316406 206.195312 930.316406 Z M 200.042969 930.316406 " fill-opacity="1" fill-rule="nonzero"/><path fill="#853256" d="M 793.164062 841.601562 L 1458.523438 841.601562 C 1458.84375 843.578125 1459.050781 845.566406 1459.152344 847.566406 C 1459.152344 1052.621094 1459.152344 1257.675781 1459.152344 1462.730469 L 1459.152344 1468.542969 L 792.808594 1468.542969 L 792.808594 1461.144531 C 792.808594 1257.191406 792.808594 1053.238281 792.808594 849.285156 C 792.832031 846.683594 793.050781 844.15625 793.164062 841.601562 Z M 967.957031 1380.644531 C 969.664062 1380.742188 970.757812 1380.863281 971.847656 1380.863281 C 1030.398438 1380.863281 1088.949219 1381.152344 1147.5 1380.753906 C 1154.941406 1380.722656 1162.355469 1380.285156 1169.746094 1379.441406 C 1177.140625 1378.597656 1184.460938 1377.347656 1191.714844 1375.699219 C 1198.96875 1374.046875 1206.113281 1372.003906 1213.140625 1369.570312 C 1220.171875 1367.132812 1227.046875 1364.320312 1233.769531 1361.128906 C 1303.464844 1328.1875 1310.863281 1255.921875 1292.019531 1212 C 1277.546875 1178.253906 1251.441406 1157.585938 1217.539062 1145.625 C 1213.128906 1144.078125 1208.71875 1142.710938 1205.015625 1141.5 C 1214.222656 1134.101562 1223.988281 1127.476562 1232.289062 1119.351562 C 1273.082031 1079.386719 1267.503906 1006.726562 1225.464844 968.613281 C 1196.417969 942.277344 1160.894531 931.625 1122.839844 930.632812 C 1073.316406 929.332031 1023.730469 930.316406 974.171875 930.316406 L 967.957031 930.316406 Z M 967.957031 1380.644531 " fill-opacity="1" fill-rule="nonzero"/><path fill="#853256" d="M 280.523438 1310.59375 L 280.523438 1188.519531 C 282.648438 1188.421875 284.578125 1188.253906 286.507812 1188.242188 C 314.410156 1188.242188 342.316406 1188.132812 370.21875 1188.242188 C 385.574219 1188.320312 400.644531 1190.515625 414.722656 1197.0625 C 435.671875 1206.765625 448.765625 1222.597656 449.59375 1246.289062 C 450.488281 1271.566406 438.824219 1289.8125 416.046875 1300.871094 C 401.925781 1307.726562 386.789062 1310.691406 371.253906 1310.871094 C 342.257812 1311.199219 313.253906 1310.980469 284.25 1310.957031 C 283.125 1310.945312 282.066406 1310.75 280.523438 1310.59375 Z M 280.523438 1310.59375 " fill-opacity="1" fill-rule="nonzero"/><path fill="#853256" d="M 280.523438 1117.355469 L 280.523438 1001.027344 C 282.648438 1000.90625 284.578125 1000.683594 286.507812 1000.683594 C 305.414062 1000.683594 324.355469 1000.035156 343.21875 1000.914062 C 353.871094 1001.371094 364.257812 1003.261719 374.386719 1006.59375 C 393.335938 1013 405.714844 1026.4375 408.636719 1046.644531 C 411.671875 1067.527344 405.242188 1085.460938 388.464844 1098.957031 C 385.613281 1101.292969 382.601562 1103.398438 379.425781 1105.277344 C 376.253906 1107.152344 372.960938 1108.78125 369.539062 1110.160156 C 366.121094 1111.535156 362.617188 1112.644531 359.03125 1113.492188 C 355.441406 1114.335938 351.808594 1114.902344 348.136719 1115.195312 C 325.84375 1116.90625 303.441406 1116.78125 280.523438 1117.355469 Z M 280.523438 1117.355469 " fill-opacity="1" fill-rule="nonzero"/><path fill="#853256" d="M 1048.578125 1188.234375 C 1064.75 1188.234375 1080.550781 1188.113281 1096.269531 1188.234375 C 1115.144531 1188.429688 1134.050781 1188.234375 1152.882812 1189.402344 C 1168.644531 1190.351562 1183.527344 1195.246094 1196.230469 1205.132812 C 1229.125 1230.722656 1223.425781 1280.960938 1185.492188 1300.078125 C 1170.972656 1307.398438 1155.363281 1310.648438 1139.265625 1310.835938 C 1109.917969 1311.167969 1080.570312 1310.925781 1051.222656 1310.902344 C 1050.507812 1310.902344 1049.789062 1310.738281 1048.578125 1310.59375 Z M 1048.578125 1188.234375 " fill-opacity="1" fill-rule="nonzero"/><path fill="#853256" d="M 1048.535156 1001.457031 C 1048.917969 1001.246094 1049.074219 1001.082031 1049.238281 1001.09375 C 1075.765625 1001.542969 1102.410156 1000.652344 1128.78125 1002.921875 C 1147.722656 1004.542969 1163.519531 1014.554688 1172.25 1032.6875 C 1184.003906 1057.097656 1175.128906 1087.039062 1151.824219 1102.265625 C 1139.113281 1110.566406 1124.910156 1114.566406 1109.929688 1116.277344 C 1107.195312 1116.582031 1104.457031 1116.730469 1101.707031 1116.726562 C 1084.121094 1116.726562 1066.535156 1116.726562 1048.488281 1116.726562 Z M 1048.535156 1001.457031 " fill-opacity="1" fill-rule="nonzero"/></svg>