<svg xmlns="http://www.w3.org/2000/svg" xmlns:xlink="http://www.w3.org/1999/xlink" width="500" zoomAndPan="magnify" viewBox="0 0 375 374.999991" height="500" preserveAspectRatio="xMidYMid meet" version="1.0"><path fill="#537ec2" d="M 209.726562 368.648438 L 19.210938 368.648438 C 8.6875 368.648438 0.160156 360.117188 0.160156 349.597656 L 0.160156 57.472656 C 0.160156 46.953125 8.6875 38.421875 19.210938 38.421875 L 209.726562 38.421875 C 220.25 38.421875 228.777344 46.953125 228.777344 57.472656 L 228.777344 349.597656 C 228.777344 360.117188 220.25 368.648438 209.726562 368.648438 " fill-opacity="1" fill-rule="nonzero"/><path fill="#f0cd81" d="M 206.550781 355.949219 L 22.386719 355.949219 C 17.125 355.949219 12.859375 351.683594 12.859375 346.421875 L 12.859375 60.648438 C 12.859375 55.386719 17.125 51.121094 22.386719 51.121094 L 206.550781 51.121094 C 211.8125 51.121094 216.078125 55.386719 216.078125 60.648438 L 216.078125 346.421875 C 216.078125 351.683594 211.8125 355.949219 206.550781 355.949219 " fill-opacity="1" fill-rule="nonzero"/><path fill="#e0802b" d="M 38.261719 130.503906 C 36.511719 130.503906 35.085938 131.925781 35.085938 133.679688 L 35.085938 146.378906 C 35.085938 148.132812 36.511719 149.554688 38.261719 149.554688 L 50.964844 149.554688 C 52.714844 149.554688 54.136719 148.132812 54.136719 146.378906 L 54.136719 133.679688 C 54.136719 131.925781 52.714844 130.503906 50.964844 130.503906 Z M 50.964844 155.90625 L 38.261719 155.90625 C 33.007812 155.90625 28.734375 151.632812 28.734375 146.378906 L 28.734375 133.679688 C 28.734375 128.425781 33.007812 124.152344 38.261719 124.152344 L 50.964844 124.152344 C 56.214844 124.152344 60.488281 128.425781 60.488281 133.679688 L 60.488281 146.378906 C 60.488281 151.632812 56.214844 155.90625 50.964844 155.90625 " fill-opacity="1" fill-rule="nonzero"/><path fill="#03999c" d="M 44.613281 143.203125 C 43.800781 143.203125 42.988281 142.894531 42.367188 142.273438 C 41.128906 141.035156 41.128906 139.023438 42.367188 137.785156 L 61.417969 118.734375 C 62.660156 117.492188 64.667969 117.492188 65.910156 118.734375 C 67.148438 119.972656 67.148438 121.984375 65.910156 123.222656 L 46.859375 142.273438 C 46.238281 142.894531 45.425781 143.203125 44.613281 143.203125 " fill-opacity="1" fill-rule="nonzero"/><path fill="#e0802b" d="M 38.261719 187.660156 C 36.511719 187.660156 35.085938 189.082031 35.085938 190.835938 L 35.085938 203.535156 C 35.085938 205.285156 36.511719 206.710938 38.261719 206.710938 L 50.964844 206.710938 C 52.714844 206.710938 54.136719 205.285156 54.136719 203.535156 L 54.136719 190.835938 C 54.136719 189.082031 52.714844 187.660156 50.964844 187.660156 Z M 50.964844 213.0625 L 38.261719 213.0625 C 33.007812 213.0625 28.734375 208.789062 28.734375 203.535156 L 28.734375 190.835938 C 28.734375 185.582031 33.007812 181.308594 38.261719 181.308594 L 50.964844 181.308594 C 56.214844 181.308594 60.488281 185.582031 60.488281 190.835938 L 60.488281 203.535156 C 60.488281 208.789062 56.214844 213.0625 50.964844 213.0625 " fill-opacity="1" fill-rule="nonzero"/><path fill="#03999c" d="M 44.613281 200.359375 C 43.800781 200.359375 42.988281 200.050781 42.367188 199.429688 C 41.128906 198.1875 41.128906 196.179688 42.367188 194.941406 L 61.417969 175.886719 C 62.660156 174.648438 64.667969 174.648438 65.910156 175.886719 C 67.148438 177.128906 67.148438 179.136719 65.910156 180.378906 L 46.859375 199.429688 C 46.238281 200.050781 45.425781 200.359375 44.613281 200.359375 " fill-opacity="1" fill-rule="nonzero"/><path fill="#e0802b" d="M 38.261719 244.8125 C 36.511719 244.8125 35.085938 246.238281 35.085938 247.988281 L 35.085938 260.691406 C 35.085938 262.441406 36.511719 263.867188 38.261719 263.867188 L 50.964844 263.867188 C 52.714844 263.867188 54.136719 262.441406 54.136719 260.691406 L 54.136719 247.988281 C 54.136719 246.238281 52.714844 244.8125 50.964844 244.8125 Z M 50.964844 270.214844 L 38.261719 270.214844 C 33.007812 270.214844 28.734375 265.941406 28.734375 260.691406 L 28.734375 247.988281 C 28.734375 242.734375 33.007812 238.464844 38.261719 238.464844 L 50.964844 238.464844 C 56.214844 238.464844 60.488281 242.734375 60.488281 247.988281 L 60.488281 260.691406 C 60.488281 265.941406 56.214844 270.214844 50.964844 270.214844 " fill-opacity="1" fill-rule="nonzero"/><path fill="#e0802b" d="M 38.261719 301.96875 C 36.511719 301.96875 35.085938 303.390625 35.085938 305.144531 L 35.085938 317.84375 C 35.085938 319.597656 36.511719 321.019531 38.261719 321.019531 L 50.964844 321.019531 C 52.714844 321.019531 54.136719 319.597656 54.136719 317.84375 L 54.136719 305.144531 C 54.136719 303.390625 52.714844 301.96875 50.964844 301.96875 Z M 50.964844 327.371094 L 38.261719 327.371094 C 33.007812 327.371094 28.734375 323.097656 28.734375 317.84375 L 28.734375 305.144531 C 28.734375 299.890625 33.007812 295.617188 38.261719 295.617188 L 50.964844 295.617188 C 56.214844 295.617188 60.488281 299.890625 60.488281 305.144531 L 60.488281 317.84375 C 60.488281 323.097656 56.214844 327.371094 50.964844 327.371094 " fill-opacity="1" fill-rule="nonzero"/><path fill="#084c4f" d="M 127.167969 136.855469 L 89.066406 136.855469 C 87.3125 136.855469 85.890625 135.433594 85.890625 133.679688 C 85.890625 131.925781 87.3125 130.503906 89.066406 130.503906 L 127.167969 130.503906 C 128.925781 130.503906 130.34375 131.925781 130.34375 133.679688 C 130.34375 135.433594 128.925781 136.855469 127.167969 136.855469 " fill-opacity="1" fill-rule="nonzero"/><path fill="#084c4f" d="M 197.027344 136.855469 L 146.222656 136.855469 C 144.464844 136.855469 143.046875 135.433594 143.046875 133.679688 C 143.046875 131.925781 144.464844 130.503906 146.222656 130.503906 L 197.027344 130.503906 C 198.78125 130.503906 200.199219 131.925781 200.199219 133.679688 C 200.199219 135.433594 198.78125 136.855469 197.027344 136.855469 " fill-opacity="1" fill-rule="nonzero"/><path fill="#084c4f" d="M 108.117188 149.554688 L 76.367188 149.554688 C 74.609375 149.554688 73.191406 148.136719 73.191406 146.378906 C 73.191406 144.625 74.609375 143.203125 76.367188 143.203125 L 108.117188 143.203125 C 109.875 143.203125 111.292969 144.625 111.292969 146.378906 C 111.292969 148.136719 109.875 149.554688 108.117188 149.554688 " fill-opacity="1" fill-rule="nonzero"/><path fill="#084c4f" d="M 158.921875 149.554688 L 127.167969 149.554688 C 125.414062 149.554688 123.996094 148.136719 123.996094 146.378906 C 123.996094 144.625 125.414062 143.203125 127.167969 143.203125 L 158.921875 143.203125 C 160.675781 143.203125 162.097656 144.625 162.097656 146.378906 C 162.097656 148.136719 160.675781 149.554688 158.921875 149.554688 " fill-opacity="1" fill-rule="nonzero"/><path fill="#084c4f" d="M 114.46875 194.007812 L 89.066406 194.007812 C 87.3125 194.007812 85.890625 192.589844 85.890625 190.835938 C 85.890625 189.078125 87.3125 187.660156 89.066406 187.660156 L 114.46875 187.660156 C 116.222656 187.660156 117.644531 189.078125 117.644531 190.835938 C 117.644531 192.589844 116.222656 194.007812 114.46875 194.007812 " fill-opacity="1" fill-rule="nonzero"/><path fill="#084c4f" d="M 197.027344 194.007812 L 133.519531 194.007812 C 131.765625 194.007812 130.34375 192.589844 130.34375 190.835938 C 130.34375 189.078125 131.765625 187.660156 133.519531 187.660156 L 197.027344 187.660156 C 198.78125 187.660156 200.199219 189.078125 200.199219 190.835938 C 200.199219 192.589844 198.78125 194.007812 197.027344 194.007812 " fill-opacity="1" fill-rule="nonzero"/><path fill="#084c4f" d="M 95.417969 206.710938 L 76.367188 206.710938 C 74.609375 206.710938 73.191406 205.289062 73.191406 203.535156 C 73.191406 201.78125 74.609375 200.359375 76.367188 200.359375 L 95.417969 200.359375 C 97.171875 200.359375 98.59375 201.78125 98.59375 203.535156 C 98.59375 205.289062 97.171875 206.710938 95.417969 206.710938 " fill-opacity="1" fill-rule="nonzero"/><path fill="#084c4f" d="M 158.921875 206.710938 L 114.46875 206.710938 C 112.714844 206.710938 111.292969 205.289062 111.292969 203.535156 C 111.292969 201.78125 112.714844 200.359375 114.46875 200.359375 L 158.921875 200.359375 C 160.675781 200.359375 162.097656 201.78125 162.097656 203.535156 C 162.097656 205.289062 160.675781 206.710938 158.921875 206.710938 " fill-opacity="1" fill-rule="nonzero"/><path fill="#084c4f" d="M 114.46875 251.164062 L 89.066406 251.164062 C 87.3125 251.164062 85.890625 249.742188 85.890625 247.988281 C 85.890625 246.234375 87.3125 244.8125 89.066406 244.8125 L 114.46875 244.8125 C 116.222656 244.8125 117.644531 246.234375 117.644531 247.988281 C 117.644531 249.742188 116.222656 251.164062 114.46875 251.164062 " fill-opacity="1" fill-rule="nonzero"/><path fill="#084c4f" d="M 197.027344 251.164062 L 133.519531 251.164062 C 131.765625 251.164062 130.34375 249.742188 130.34375 247.988281 C 130.34375 246.234375 131.765625 244.8125 133.519531 244.8125 L 197.027344 244.8125 C 198.78125 244.8125 200.199219 246.234375 200.199219 247.988281 C 200.199219 249.742188 198.78125 251.164062 197.027344 251.164062 " fill-opacity="1" fill-rule="nonzero"/><path fill="#084c4f" d="M 95.417969 263.867188 L 76.367188 263.867188 C 74.609375 263.867188 73.191406 262.445312 73.191406 260.691406 C 73.191406 258.933594 74.609375 257.515625 76.367188 257.515625 L 95.417969 257.515625 C 97.171875 257.515625 98.59375 258.933594 98.59375 260.691406 C 98.59375 262.445312 97.171875 263.867188 95.417969 263.867188 " fill-opacity="1" fill-rule="nonzero"/><path fill="#084c4f" d="M 158.921875 263.867188 L 114.46875 263.867188 C 112.714844 263.867188 111.292969 262.445312 111.292969 260.691406 C 111.292969 258.933594 112.714844 257.515625 114.46875 257.515625 L 158.921875 257.515625 C 160.675781 257.515625 162.097656 258.933594 162.097656 260.691406 C 162.097656 262.445312 160.675781 263.867188 158.921875 263.867188 " fill-opacity="1" fill-rule="nonzero"/><path fill="#084c4f" d="M 114.46875 308.320312 L 89.066406 308.320312 C 87.3125 308.320312 85.890625 306.898438 85.890625 305.144531 C 85.890625 303.390625 87.3125 301.96875 89.066406 301.96875 L 114.46875 301.96875 C 116.222656 301.96875 117.644531 303.390625 117.644531 305.144531 C 117.644531 306.898438 116.222656 308.320312 114.46875 308.320312 " fill-opacity="1" fill-rule="nonzero"/><path fill="#084c4f" d="M 197.027344 308.320312 L 133.519531 308.320312 C 131.765625 308.320312 130.34375 306.898438 130.34375 305.144531 C 130.34375 303.390625 131.765625 301.96875 133.519531 301.96875 L 197.027344 301.96875 C 198.78125 301.96875 200.199219 303.390625 200.199219 305.144531 C 200.199219 306.898438 198.78125 308.320312 197.027344 308.320312 " fill-opacity="1" fill-rule="nonzero"/><path fill="#084c4f" d="M 95.417969 321.019531 L 76.367188 321.019531 C 74.609375 321.019531 73.191406 319.601562 73.191406 317.84375 C 73.191406 316.089844 74.609375 314.667969 76.367188 314.667969 L 95.417969 314.667969 C 97.171875 314.667969 98.59375 316.089844 98.59375 317.84375 C 98.59375 319.601562 97.171875 321.019531 95.417969 321.019531 " fill-opacity="1" fill-rule="nonzero"/><path fill="#084c4f" d="M 158.921875 321.019531 L 114.46875 321.019531 C 112.714844 321.019531 111.292969 319.601562 111.292969 317.84375 C 111.292969 316.089844 112.714844 314.667969 114.46875 314.667969 L 158.921875 314.667969 C 160.675781 314.667969 162.097656 316.089844 162.097656 317.84375 C 162.097656 319.601562 160.675781 321.019531 158.921875 321.019531 " fill-opacity="1" fill-rule="nonzero"/><path fill="#f57a08" d="M 146.222656 108.277344 L 76.367188 108.277344 C 69.351562 108.277344 63.664062 102.589844 63.664062 95.574219 C 63.664062 88.5625 69.351562 82.875 76.367188 82.875 L 146.222656 82.875 C 153.234375 82.875 158.921875 88.5625 158.921875 95.574219 C 158.921875 102.589844 153.234375 108.277344 146.222656 108.277344 " fill-opacity="1" fill-rule="nonzero"/><path fill="#084c4f" d="M 95.417969 98.75 L 76.367188 98.75 C 74.609375 98.75 73.191406 97.332031 73.191406 95.574219 C 73.191406 93.820312 74.609375 92.402344 76.367188 92.402344 L 95.417969 92.402344 C 97.171875 92.402344 98.59375 93.820312 98.59375 95.574219 C 98.59375 97.332031 97.171875 98.75 95.417969 98.75 " fill-opacity="1" fill-rule="nonzero"/><path fill="#084c4f" d="M 146.222656 98.75 L 108.117188 98.75 C 106.363281 98.75 104.941406 97.332031 104.941406 95.574219 C 104.941406 93.820312 106.363281 92.402344 108.117188 92.402344 L 146.222656 92.402344 C 147.976562 92.402344 149.398438 93.820312 149.398438 95.574219 C 149.398438 97.332031 147.976562 98.75 146.222656 98.75 " fill-opacity="1" fill-rule="nonzero"/><path fill="#b1cdb4" d="M 114.46875 19.371094 C 110.957031 19.371094 108.117188 16.527344 108.117188 13.019531 C 108.117188 9.507812 110.957031 6.667969 114.46875 6.667969 C 117.980469 6.667969 120.820312 9.507812 120.820312 13.019531 C 120.820312 16.527344 117.980469 19.371094 114.46875 19.371094 Z M 146.125 38.515625 C 142.148438 34.53125 136.648438 32.070312 130.574219 32.070312 C 128.421875 32.070312 126.390625 31.085938 125.058594 29.394531 L 124.8125 29.085938 C 122.867188 26.617188 122.773438 23.128906 124.652344 20.605469 C 126.234375 18.488281 127.167969 15.859375 127.167969 13.019531 C 127.167969 5.820312 121.183594 0.015625 113.90625 0.332031 C 107.476562 0.601562 102.15625 5.847656 101.792969 12.269531 C 101.617188 15.328125 102.519531 18.179688 104.171875 20.457031 C 106.054688 23.058594 106.109375 26.558594 104.09375 29.125 L 103.871094 29.402344 C 103.210938 30.242188 102.371094 30.910156 101.425781 31.371094 C 100.480469 31.824219 99.433594 32.070312 98.363281 32.070312 C 86.214844 32.070312 76.367188 41.921875 76.367188 54.066406 L 76.367188 60.648438 C 76.367188 65.910156 80.628906 70.171875 85.890625 70.171875 L 143.046875 70.171875 C 148.308594 70.171875 152.570312 65.910156 152.570312 60.648438 L 152.570312 54.066406 C 152.570312 47.992188 150.109375 42.492188 146.125 38.515625 " fill-opacity="1" fill-rule="nonzero"/><path fill="#72baaa" d="M 133.519531 47.945312 L 95.417969 47.945312 C 93.660156 47.945312 92.242188 46.527344 92.242188 44.769531 C 92.242188 43.015625 93.660156 41.597656 95.417969 41.597656 L 133.519531 41.597656 C 135.277344 41.597656 136.695312 43.015625 136.695312 44.769531 C 136.695312 46.527344 135.277344 47.945312 133.519531 47.945312 " fill-opacity="1" fill-rule="nonzero"/><path fill="#72baaa" d="M 133.519531 60.648438 L 95.417969 60.648438 C 93.660156 60.648438 92.242188 59.226562 92.242188 57.472656 C 92.242188 55.71875 93.660156 54.296875 95.417969 54.296875 L 133.519531 54.296875 C 135.277344 54.296875 136.695312 55.71875 136.695312 57.472656 C 136.695312 59.226562 135.277344 60.648438 133.519531 60.648438 " fill-opacity="1" fill-rule="nonzero"/><path fill="#133852" d="M 374.839844 308.652344 L 374.839844 362.300781 L 293.246094 362.300781 L 271.421875 326.054688 L 270.636719 324.75 C 267.382812 317.734375 275.488281 304.691406 304.714844 286.09375 C 334.484375 267.144531 349.265625 265.5 353.464844 271.820312 L 353.917969 272.597656 L 353.917969 272.605469 L 374.839844 308.652344 " fill-opacity="1" fill-rule="nonzero"/><path fill="#f5a971" d="M 272.960938 241.636719 C 272.960938 222.585938 260.261719 203.535156 241.210938 203.535156 C 222.160156 203.535156 212.632812 225.761719 206.28125 238.464844 C 199.929688 251.164062 180.878906 247.988281 180.878906 235.289062 C 180.878906 222.585938 190.40625 216.234375 203.105469 203.535156 C 203.105469 203.535156 226.921875 173.679688 251.535156 174.957031 C 267.410156 175.222656 280.640625 181.570312 281.433594 198.507812 C 282.226562 215.441406 272.960938 241.636719 272.960938 241.636719 " fill-opacity="1" fill-rule="nonzero"/><path fill="#f5a971" d="M 276.136719 261.011719 C 276.136719 241.960938 263.4375 222.910156 244.386719 222.910156 C 225.332031 222.910156 218.1875 246.996094 211.839844 259.699219 C 205.488281 272.398438 187.824219 265.453125 192.957031 251.164062 C 196.925781 240.050781 200.726562 235.289062 213.425781 222.585938 L 231.933594 196.5625 L 287.964844 211.738281 L 276.136719 261.011719 " fill-opacity="1" fill-rule="nonzero"/><path fill="#f5a971" d="M 266.683594 158.289062 L 266.683594 189.839844 C 235.128906 166.027344 197.027344 197.183594 197.027344 197.183594 C 190.675781 203.535156 177.972656 203.535156 177.972656 184.484375 C 177.972656 165.433594 190.675781 146.378906 209.726562 146.378906 C 228.777344 146.378906 250.410156 148.761719 266.683594 158.289062 " fill-opacity="1" fill-rule="nonzero"/><path fill="#f5a971" d="M 355.519531 330.546875 C 355.519531 330.546875 349.167969 305.144531 342.820312 279.742188 C 336.46875 254.339844 317.417969 203.535156 298.363281 171.78125 C 279.3125 140.03125 234.859375 127.328125 215.808594 133.679688 C 196.757812 140.03125 190.40625 171.78125 190.40625 178.132812 C 190.40625 184.484375 203.105469 190.835938 215.808594 171.78125 C 228.507812 152.730469 234.859375 152.730469 253.910156 171.78125 C 272.960938 190.835938 266.613281 241.636719 247.558594 241.636719 C 228.507812 241.636719 215.808594 228.9375 215.808594 209.886719 C 215.808594 190.835938 190.40625 190.835938 190.40625 209.886719 C 190.40625 228.9375 196.757812 254.339844 222.160156 273.390625 C 247.558594 292.441406 285.664062 292.441406 304.714844 324.195312 L 307.464844 329.554688 L 355.519531 330.546875 " fill-opacity="1" fill-rule="nonzero"/><path fill="#03999c" d="M 158.652344 216.234375 L 177.703125 190.835938 L 311.066406 127.328125 L 323.898438 153 L 190.40625 216.234375 L 158.652344 216.234375 " fill-opacity="1" fill-rule="nonzero"/><path fill="#03999c" d="M 314.039062 133.277344 L 335.472656 123.125 L 342.492188 137.167969 L 321.058594 147.320312 L 314.039062 133.277344 " fill-opacity="1" fill-rule="nonzero"/><path fill="#72baaa" d="M 190.40625 216.234375 L 177.703125 190.835938 L 158.652344 216.234375 Z M 190.40625 216.234375 " fill-opacity="1" fill-rule="nonzero"/><path fill="#f5a971" d="M 261.050781 182.773438 C 270.660156 205.523438 263.621094 241.636719 247.558594 241.636719 C 228.507812 241.636719 215.808594 228.9375 215.808594 209.886719 C 215.808594 190.835938 190.40625 190.835938 190.40625 209.886719 C 190.40625 228.9375 196.757812 254.339844 222.160156 273.390625 C 247.558594 292.441406 285.664062 292.441406 304.714844 324.195312 L 307.464844 329.554688 L 355.519531 330.546875 C 355.519531 330.546875 349.167969 305.144531 342.820312 279.742188 C 336.46875 254.339844 317.417969 203.535156 298.363281 171.78125 C 297.3125 170.03125 296.183594 168.335938 294.984375 166.695312 L 261.050781 182.773438 " fill-opacity="1" fill-rule="nonzero"/><path fill="#f5a971" d="M 272.21875 146.0625 C 252.097656 133.609375 228.398438 129.480469 215.808594 133.679688 C 196.757812 140.03125 190.40625 171.78125 190.40625 178.132812 C 190.40625 184.484375 203.105469 190.835938 215.808594 171.78125 C 225.183594 157.714844 231.101562 154.03125 241.226562 160.742188 L 272.21875 146.0625 " fill-opacity="1" fill-rule="nonzero"/><path fill="#e37066" d="M 188.335938 185.460938 C 188.863281 185.460938 189.398438 185.328125 189.886719 185.054688 C 191.417969 184.195312 191.960938 182.261719 191.101562 180.730469 C 190.636719 179.90625 190.40625 179.03125 190.40625 178.132812 C 190.40625 174.917969 191.863281 166.558594 195.109375 158.046875 C 195.734375 156.410156 194.910156 154.574219 193.269531 153.949219 C 191.636719 153.324219 189.796875 154.144531 189.175781 155.785156 C 185.8125 164.605469 184.054688 173.703125 184.054688 178.132812 C 184.054688 180.105469 184.574219 182.082031 185.566406 183.839844 C 186.148438 184.878906 187.222656 185.460938 188.335938 185.460938 " fill-opacity="1" fill-rule="nonzero"/><path fill="#e37066" d="M 195.367188 246.253906 C 196.976562 245.554688 197.710938 243.683594 197.011719 242.074219 C 194.351562 235.984375 192.46875 229.46875 191.410156 222.703125 C 191.136719 220.972656 189.515625 219.792969 187.777344 220.058594 C 186.046875 220.332031 184.863281 221.957031 185.132812 223.691406 C 186.28125 230.984375 188.316406 238.027344 191.1875 244.617188 C 191.707031 245.808594 192.875 246.523438 194.097656 246.523438 C 194.523438 246.523438 194.953125 246.433594 195.367188 246.253906 " fill-opacity="1" fill-rule="nonzero"/><path fill="#e37066" d="M 199.824219 247.847656 C 198.988281 246.308594 197.0625 245.730469 195.519531 246.570312 C 193.976562 247.402344 193.402344 249.332031 194.238281 250.871094 C 196.773438 255.550781 199.792969 260.015625 203.21875 264.148438 C 203.84375 264.902344 204.75 265.292969 205.664062 265.292969 C 206.378906 265.292969 207.097656 265.054688 207.691406 264.566406 C 209.039062 263.445312 209.222656 261.445312 208.105469 260.09375 C 204.945312 256.285156 202.160156 252.164062 199.824219 247.847656 " fill-opacity="1" fill-rule="nonzero"/><path fill="#e37066" d="M 256.925781 222.414062 C 252.984375 220.632812 248.78125 219.734375 244.386719 219.734375 C 238.121094 219.734375 232.433594 222.050781 227.4375 226.632812 C 225.1875 223.816406 223.648438 220.410156 222.835938 216.539062 C 228.457031 209.933594 234.476562 206.710938 241.210938 206.710938 C 247.652344 206.710938 253.621094 209.1875 258.558594 213.890625 C 258.191406 216.976562 257.628906 219.867188 256.925781 222.414062 Z M 262.308594 186.097656 C 261.746094 184.4375 259.949219 183.542969 258.285156 184.105469 C 256.621094 184.667969 255.730469 186.46875 256.292969 188.128906 C 258.238281 193.902344 259.035156 200.132812 259.03125 206.066406 C 253.734375 202.316406 247.675781 200.359375 241.210938 200.359375 C 234.296875 200.359375 227.890625 203 222.09375 208.203125 C 222.042969 207.402344 221.96875 206.609375 221.84375 205.84375 C 221.8125 205.648438 221.78125 205.453125 221.742188 205.257812 C 221.421875 203.53125 219.753906 202.398438 218.039062 202.722656 C 216.3125 203.046875 215.179688 204.707031 215.503906 206.429688 C 215.527344 206.566406 215.550781 206.699219 215.570312 206.835938 C 215.574219 206.839844 215.570312 206.839844 215.570312 206.84375 C 215.730469 207.8125 215.808594 208.835938 215.808594 209.886719 C 215.808594 219.617188 219.054688 227.800781 225.195312 233.542969 C 225.785156 234.09375 226.5625 234.402344 227.367188 234.402344 C 227.414062 234.402344 227.460938 234.398438 227.507812 234.398438 C 228.363281 234.359375 229.164062 233.976562 229.734375 233.339844 C 234.097656 228.457031 238.886719 226.085938 244.386719 226.085938 C 248.929688 226.085938 253.214844 227.296875 257.117188 229.695312 C 257.925781 230.1875 258.914062 230.296875 259.808594 229.988281 C 260.703125 229.679688 261.414062 228.988281 261.75 228.105469 C 265.621094 217.835938 267.292969 200.863281 262.308594 186.097656 " fill-opacity="1" fill-rule="nonzero"/><path fill="#e37066" d="M 225.121094 167.972656 C 225.957031 167.972656 226.796875 167.644531 227.421875 166.988281 C 230.371094 163.886719 232.015625 163.683594 233.238281 163.890625 C 234.964844 164.183594 236.605469 163.023438 236.902344 161.296875 C 237.199219 159.566406 236.035156 157.925781 234.304688 157.628906 C 229.105469 156.746094 225.257812 160.046875 222.820312 162.605469 C 221.613281 163.878906 221.660156 165.886719 222.929688 167.097656 C 223.542969 167.683594 224.332031 167.972656 225.121094 167.972656 " fill-opacity="1" fill-rule="nonzero"/><path fill="#0e638b" d="M 374.839844 308.652344 L 374.839844 375 L 300.890625 375 L 271.421875 326.054688 C 277.640625 334.300781 302.648438 331.917969 323.765625 317.84375 C 344.984375 303.699219 358.328125 281.671875 353.917969 272.605469 L 362.140625 286.773438 L 374.839844 308.652344 " fill-opacity="1" fill-rule="nonzero"/><path fill="#72baaa" d="M 311.066406 159.082031 L 298.242188 133.433594 L 311.066406 127.328125 L 327.277344 159.75 C 328.847656 162.890625 327.574219 166.703125 324.4375 168.273438 L 298.5625 181.207031 C 294.949219 183.015625 290.546875 181.550781 288.738281 177.933594 L 288.738281 177.929688 C 286.902344 174.261719 288.441406 169.796875 292.152344 168.039062 L 311.066406 159.082031 " fill-opacity="1" fill-rule="nonzero"/></svg>