<svg xmlns="http://www.w3.org/2000/svg" xmlns:xlink="http://www.w3.org/1999/xlink" width="3000" zoomAndPan="magnify" viewBox="0 0 2250 2250.000011" height="3000" preserveAspectRatio="xMidYMid meet" version="1.0"><defs><clipPath id="d19222adcc"><path d="M 0.5 1401 L 225 1401 L 225 1962 L 0.5 1962 Z M 0.5 1401 " clip-rule="nonzero"/></clipPath><clipPath id="992de13317"><path d="M 1989 1407 L 2249.5 1407 L 2249.5 1955 L 1989 1955 Z M 1989 1407 " clip-rule="nonzero"/></clipPath></defs><path fill="#853256" d="M 1019.582031 1961.734375 C 1019.707031 1855.464844 1019.824219 1749.199219 1019.9375 1642.9375 C 1019.988281 1568.839844 1019.988281 1494.738281 1019.9375 1420.640625 L 1019.9375 1400.796875 C 1041.898438 1405.050781 1062.214844 1408.390625 1082.203125 1413.132812 C 1090.425781 1415.074219 1097.867188 1420.210938 1105.804688 1423.539062 C 1154.679688 1444.078125 1188.921875 1480.007812 1210.945312 1527.105469 C 1252.839844 1616.566406 1253.226562 1709.140625 1225.742188 1802.222656 C 1222.878906 1812.152344 1219.328125 1821.832031 1215.097656 1831.261719 C 1210.863281 1840.691406 1205.988281 1849.777344 1200.46875 1858.519531 C 1194.953125 1867.257812 1188.847656 1875.566406 1182.152344 1883.445312 C 1175.460938 1891.320312 1168.246094 1898.6875 1160.511719 1905.542969 C 1127.589844 1934.867188 1090.25 1953.015625 1046.617188 1958.605469 C 1043.375 1959.011719 1040.289062 1960.644531 1037.132812 1961.710938 Z M 1077.890625 1887.574219 C 1080.933594 1886.878906 1083.40625 1886.8125 1085.398438 1885.808594 C 1131.480469 1862.335938 1158.835938 1823.960938 1172.40625 1775.113281 C 1187.695312 1720.078125 1188.027344 1664.335938 1177.191406 1608.640625 C 1168.535156 1564.191406 1148.824219 1525.132812 1113.324219 1495.859375 C 1103.734375 1487.945312 1091.144531 1483.644531 1077.890625 1476.625 Z M 1077.890625 1887.574219 " fill-opacity="1" fill-rule="nonzero"/><g clip-path="url(#d19222adcc)"><path fill="#853256" d="M 0.5 1628.253906 C 5.484375 1603.527344 9.726562 1578.644531 15.601562 1554.125 C 26.097656 1510.359375 45.808594 1470.472656 78.773438 1439.800781 C 117.019531 1404.300781 162.613281 1392.285156 213.8125 1410.035156 C 223.679688 1413.464844 227.042969 1418.027344 221.617188 1428.191406 C 214.101562 1442.304688 207.660156 1457 200.769531 1471.441406 C 165.957031 1455.46875 131.382812 1470.527344 108.5625 1499.609375 C 64.109375 1556.265625 58.367188 1623.613281 60.460938 1692.164062 C 61.90625 1739.304688 70.496094 1784.988281 95.488281 1826.199219 C 107.976562 1846.804688 123.046875 1864.785156 144.941406 1876.074219 C 151.558594 1879.46875 158.0625 1883.085938 166.816406 1887.792969 L 166.816406 1700.609375 L 222.542969 1700.609375 C 223.074219 1703.914062 224.054688 1707.078125 224.054688 1710.277344 C 224.128906 1791.210938 224.128906 1872.140625 224.054688 1953.070312 C 223.867188 1955.980469 223.5 1958.871094 222.953125 1961.734375 L 190.847656 1961.734375 C 187.652344 1960.632812 184.542969 1959.132812 181.269531 1958.679688 C 141.394531 1953.234375 108.882812 1934.546875 80.328125 1906.480469 C 49.625 1876.304688 30 1840.199219 18.667969 1799.542969 C 11.015625 1772.15625 6.453125 1743.890625 0.5 1716.007812 Z M 0.5 1628.253906 " fill-opacity="1" fill-rule="nonzero"/></g><g clip-path="url(#992de13317)"><path fill="#853256" d="M 2249.5 1411.789062 C 2236.039062 1457.902344 2222.335938 1503.964844 2209.183594 1550.179688 C 2194.410156 1602.058594 2180.519531 1654.207031 2165.503906 1706 C 2154.335938 1744.386719 2144.722656 1782.476562 2146.761719 1823.3125 C 2148.96875 1866.539062 2147.246094 1909.953125 2147.246094 1954.503906 L 2091.34375 1954.503906 C 2091.054688 1949.609375 2090.503906 1944.492188 2090.492188 1939.367188 C 2090.417969 1900.371094 2088.839844 1861.300781 2090.902344 1822.417969 C 2092.984375 1783.136719 2084.078125 1746.347656 2073.449219 1709.304688 C 2045.679688 1612.554688 2018.601562 1515.605469 1991.316406 1418.722656 C 1990.546875 1415.964844 1990.480469 1413 1989.761719 1407.765625 C 2008.691406 1407.765625 2026.96875 1407.476562 2045.226562 1408.117188 C 2047.519531 1408.207031 2050.871094 1412.878906 2051.675781 1415.964844 C 2068.289062 1479.984375 2084.585938 1544.09375 2101 1608.167969 C 2106.511719 1629.722656 2112.210938 1651.230469 2120.214844 1672.714844 C 2128.027344 1642.273438 2135.84375 1611.839844 2143.664062 1581.410156 C 2157.730469 1526.289062 2171.644531 1471.101562 2186.121094 1416.042969 C 2187.011719 1412.625 2192.21875 1408.019531 2195.503906 1407.953125 C 2213.484375 1407.566406 2231.484375 1408.4375 2249.523438 1408.867188 Z M 2249.5 1411.789062 " fill-opacity="1" fill-rule="nonzero"/></g><path fill="#853256" d="M 1143.875 1238.648438 L 1143.875 302.976562 C 1174.214844 307.507812 1204.242188 306.679688 1232.367188 319.183594 C 1241.617188 323.292969 1252.125 324.484375 1261.691406 328 C 1332.351562 353.902344 1389.171875 397.746094 1432.152344 459.535156 C 1483.96875 534.058594 1506.589844 617.914062 1514.550781 706.902344 C 1521.992188 790.148438 1516.535156 872.269531 1493.738281 952.871094 C 1480.980469 997.9375 1462.304688 1040.472656 1435.515625 1079.378906 C 1403.445312 1125.964844 1364.871094 1165.367188 1313.792969 1190.722656 C 1290.53125 1202.289062 1266.566406 1213.160156 1241.828125 1220.832031 C 1215.675781 1228.945312 1188.246094 1233.046875 1161.347656 1238.472656 C 1156.1875 1239.53125 1150.6875 1238.648438 1143.875 1238.648438 Z M 1239.789062 1116.507812 C 1245.101562 1113.453125 1248.144531 1111.105469 1251.582031 1109.804688 C 1283.621094 1097.675781 1309.230469 1077.074219 1331.984375 1051.847656 C 1366.347656 1013.738281 1386.921875 968.746094 1400.335938 920.050781 C 1417.324219 858.3125 1420.546875 795.1875 1417.074219 731.707031 C 1413.996094 675.550781 1403.777344 620.878906 1380.96875 568.753906 C 1365.765625 533.996094 1345.335938 502.90625 1318.335938 476.988281 C 1296.476562 456.039062 1272.101562 437 1239.789062 430.804688 Z M 1239.789062 1116.507812 " fill-opacity="1" fill-rule="nonzero"/><path fill="#853256" d="M 1091.351562 328.089844 L 1050.199219 416.507812 C 1030.894531 414.488281 1013.101562 411.46875 995.242188 410.992188 C 956.324219 410.023438 927.285156 429.957031 902.304688 457.386719 C 844.976562 520.226562 826.234375 597.992188 817.0625 679.320312 C 808.949219 750.980469 811.714844 822.308594 826.523438 893.039062 C 839.6875 955.878906 863.90625 1013.859375 908.566406 1060.765625 C 930.460938 1083.777344 956.238281 1103.585938 991.25 1110.839844 L 991.25 800.148438 L 1086.0625 800.148438 L 1086.0625 1239.332031 C 1046.472656 1239.054688 1007.347656 1239.484375 970.402344 1222.652344 C 966.445312 1220.84375 962.101562 1219.894531 957.957031 1218.484375 C 898.105469 1198.089844 852.363281 1159.28125 814.449219 1109.804688 C 758.367188 1036.503906 732.527344 951.945312 720.644531 861.996094 C 708.691406 771.386719 711.25 681.195312 729.816406 591.675781 C 744.710938 519.90625 771.015625 452.632812 817.714844 395.4375 C 843.160156 364.238281 874.09375 339.214844 911.863281 321.828125 C 959.730469 299.777344 1007.523438 299.226562 1056.660156 312.789062 C 1068.058594 315.886719 1078.554688 322.324219 1091.351562 328.089844 Z M 1091.351562 328.089844 " fill-opacity="1" fill-rule="nonzero"/><path fill="#853256" d="M 317.289062 1401.214844 C 351.863281 1402.417969 386.5 1399.332031 417.996094 1417.378906 C 435.007812 1427.125 453.109375 1435.753906 468.105469 1448.070312 C 504.773438 1478.144531 517.371094 1520.589844 521.472656 1565.636719 C 525.3125 1607.75 522.71875 1649.828125 502.632812 1688.007812 C 493.363281 1705.644531 480.527344 1722.082031 466.570312 1736.40625 C 457.753906 1745.445312 456.484375 1751.199219 461.191406 1762.457031 C 487.222656 1824.699219 512.289062 1887.339844 537.636719 1949.871094 C 538.132812 1951.105469 537.902344 1952.640625 538.132812 1955.507812 C 518.894531 1955.507812 500.03125 1955.871094 481.203125 1955.152344 C 478.136719 1955.03125 473.78125 1950.742188 472.503906 1947.4375 C 453.640625 1898.507812 435.207031 1849.394531 416.632812 1800.359375 C 413.027344 1790.867188 409.199219 1781.449219 405.1875 1771.273438 C 395.785156 1773.855469 386.238281 1775.375 377.847656 1779.335938 C 374.738281 1780.800781 372.90625 1787.957031 372.875 1792.5625 C 372.523438 1840.796875 372.652344 1889.039062 372.652344 1937.28125 L 372.652344 1954.457031 L 317.289062 1954.457031 Z M 374.011719 1467.914062 L 374.011719 1712.007812 C 408.351562 1710.046875 432.882812 1693.785156 447.335938 1665.207031 C 466.769531 1626.789062 467.960938 1585.601562 457.519531 1544.402344 C 449.804688 1514.074219 434.371094 1488.972656 403.003906 1477.429688 C 394.074219 1474.144531 384.902344 1471.476562 374.011719 1467.925781 Z M 374.011719 1467.914062 " fill-opacity="1" fill-rule="nonzero"/><path fill="#853256" d="M 1563.898438 1955.550781 C 1544.316406 1955.550781 1526.414062 1956.199219 1508.597656 1954.988281 C 1505.203125 1954.746094 1500.683594 1947.578125 1499.449219 1942.859375 C 1493.660156 1920.746094 1489.214844 1898.277344 1483.308594 1876.195312 C 1482.203125 1871.972656 1476.691406 1865.898438 1473.078125 1865.820312 C 1436.519531 1865.050781 1399.949219 1865.347656 1362.039062 1865.347656 C 1356.25 1889.964844 1349.789062 1913.855469 1345.238281 1938.109375 C 1342.746094 1951.339844 1338.246094 1957.535156 1323.59375 1955.902344 C 1309.683594 1954.347656 1295.460938 1955.5625 1279.363281 1955.5625 C 1326.382812 1769.179688 1372.972656 1584.488281 1419.554688 1399.792969 L 1423.488281 1399.152344 C 1470.121094 1583.980469 1516.746094 1768.738281 1563.898438 1955.550781 Z M 1376.886719 1803.765625 L 1466.1875 1803.765625 C 1451.191406 1737.253906 1436.585938 1672.417969 1421.546875 1605.675781 C 1406.476562 1672.539062 1391.792969 1737.683594 1376.886719 1803.765625 Z M 1376.886719 1803.765625 " fill-opacity="1" fill-rule="nonzero"/><path fill="#853256" d="M 870.785156 1954.824219 L 812.566406 1954.824219 L 812.566406 1468.289062 L 736.9375 1468.289062 L 736.9375 1408.667969 L 945.300781 1408.667969 L 945.300781 1466.964844 L 870.785156 1466.964844 Z M 870.785156 1954.824219 " fill-opacity="1" fill-rule="nonzero"/><path fill="#853256" d="M 1787.574219 1408.570312 L 1842.949219 1408.570312 L 1842.949219 1895.773438 L 1968.773438 1895.773438 L 1968.773438 1954.480469 L 1787.574219 1954.480469 Z M 1787.574219 1408.570312 " fill-opacity="1" fill-rule="nonzero"/><path fill="#853256" d="M 605.667969 1409.019531 L 661.042969 1409.019531 L 661.042969 1955.097656 L 605.667969 1955.097656 Z M 605.667969 1409.019531 " fill-opacity="1" fill-rule="nonzero"/><path fill="#853256" d="M 1625.910156 1408.65625 L 1680.769531 1408.65625 L 1680.769531 1954.800781 L 1625.910156 1954.800781 Z M 1625.910156 1408.65625 " fill-opacity="1" fill-rule="nonzero"/></svg>