<svg xmlns="http://www.w3.org/2000/svg" xmlns:xlink="http://www.w3.org/1999/xlink" width="3000" zoomAndPan="magnify" viewBox="0 0 2250 2250.000011" height="3000" preserveAspectRatio="xMidYMid meet" version="1.0"><path fill="#853256" d="M 942.621094 1081.394531 C 915.984375 983.160156 890.039062 887.496094 864.105469 791.824219 L 861.785156 792.117188 L 861.785156 989.214844 L 880.46875 991.339844 L 880.46875 1080.492188 L 733.679688 1080.492188 L 733.679688 991.386719 L 756.089844 989.292969 L 756.089844 792.152344 L 733.488281 790.457031 L 733.488281 701.554688 L 925.09375 701.554688 C 938.101562 747.617188 951.277344 794.332031 965.902344 846.125 C 985.382812 798.0625 1002.492188 755.007812 1020.550781 712.359375 C 1022.699219 707.296875 1030 701.125 1035.003906 701.058594 C 1084.492188 700.234375 1133.988281 700.570312 1183.484375 700.660156 C 1185.746094 700.660156 1188.003906 701.464844 1191.046875 702.03125 L 1191.046875 789.800781 L 1172.195312 792.433594 L 1172.195312 988.773438 L 1190.515625 991.507812 L 1190.515625 1080.050781 L 1047.34375 1080.050781 L 1047.34375 991.285156 L 1067.6875 989.304688 L 1067.6875 788.71875 L 1065.585938 788.289062 C 1050.601562 842.703125 1035.621094 897.121094 1020.652344 951.539062 C 1010.257812 989.609375 999.871094 1027.707031 990.003906 1065.925781 C 986.953125 1077.734375 981.214844 1083.261719 968.445312 1081.597656 C 960.238281 1080.492188 951.753906 1081.394531 942.621094 1081.394531 Z M 942.621094 1081.394531 " fill-opacity="1" fill-rule="nonzero"/><path fill="#853256" d="M 256.835938 1080.003906 L 256.835938 991.542969 L 272.65625 988.707031 L 272.65625 929.457031 L 210.164062 929.457031 L 210.164062 989.273438 L 225.894531 991.453125 L 225.894531 1079.894531 L 79.605469 1079.894531 L 79.605469 991.632812 L 99.394531 989.203125 L 99.394531 792.085938 L 79.605469 790.515625 L 79.605469 701.40625 L 225.609375 701.40625 L 225.609375 789.304688 L 209.992188 792.921875 L 209.992188 849.3125 L 272.441406 849.3125 L 272.441406 793.316406 L 257.027344 789.8125 L 257.027344 701.476562 L 402.625 701.476562 L 402.625 789.699219 L 382.859375 792.46875 L 382.859375 989.285156 L 402.21875 991.101562 L 402.21875 1080.003906 Z M 256.835938 1080.003906 " fill-opacity="1" fill-rule="nonzero"/><path fill="#853256" d="M 79.605469 1492.867188 L 79.605469 1403.816406 L 102.09375 1401.296875 L 102.09375 1204.304688 L 80.023438 1202.292969 L 80.023438 1114.789062 C 80.589844 1114.382812 81.527344 1113.105469 82.464844 1113.105469 C 156.054688 1113.546875 229.894531 1110.640625 303.179688 1115.625 C 372.960938 1120.371094 410.207031 1199.363281 373.820312 1258.898438 C 365.742188 1272.105469 351.457031 1281.5 340.324219 1292.425781 C 370.191406 1306.28125 389.609375 1331.628906 394.058594 1366.457031 C 399.042969 1405.433594 394.230469 1442.296875 360.609375 1469.292969 C 335.746094 1489.261719 305.765625 1493.773438 275.617188 1494.304688 C 212.253906 1495.433594 148.855469 1494.652344 85.457031 1494.585938 C 83.832031 1494.5625 82.171875 1493.625 79.605469 1492.867188 Z M 212.671875 1410.890625 C 235.273438 1406.8125 261.605469 1418.722656 273.175781 1394.179688 C 279.039062 1381.746094 277.886719 1360.34375 270.691406 1348.648438 C 257.75 1327.652344 233.464844 1337.347656 212.671875 1336.214844 Z M 212.671875 1266.242188 C 232.84375 1262.074219 255.015625 1273.441406 268.894531 1253.078125 C 278.148438 1239.515625 278.203125 1222.351562 268 1209.003906 C 253.828125 1190.5625 232.707031 1197.171875 212.625 1196.234375 Z M 212.671875 1266.242188 " fill-opacity="1" fill-rule="nonzero"/><path fill="#853256" d="M 1239.0625 1401.785156 L 1261.664062 1403.0625 L 1261.664062 1493.464844 L 1148.171875 1493.464844 L 1148.171875 1403.804688 L 1171.382812 1401.207031 L 1171.382812 1203.851562 L 1148.316406 1202.4375 L 1148.316406 1112.597656 C 1190.324219 1112.597656 1231.796875 1112.144531 1273.234375 1113.195312 C 1278.117188 1113.320312 1284.445312 1120.835938 1287.304688 1126.371094 C 1318.335938 1186.402344 1348.804688 1246.714844 1381.507812 1311.039062 L 1381.507812 1203.863281 L 1360.386719 1202.347656 L 1360.386719 1114.03125 L 1472.085938 1114.03125 L 1472.085938 1201.773438 L 1448.636719 1204.40625 L 1448.636719 1499.421875 C 1418 1499.421875 1388.742188 1499.796875 1359.449219 1498.925781 C 1356.058594 1498.824219 1351.800781 1492.394531 1349.585938 1488.054688 C 1314.640625 1419.730469 1279.855469 1351.324219 1245.222656 1282.84375 C 1243.933594 1280.324219 1242.375 1277.9375 1239.039062 1272.230469 Z M 1239.0625 1401.785156 " fill-opacity="1" fill-rule="nonzero"/><path fill="#853256" d="M 418.875 1211.105469 L 398.398438 1209.375 L 398.398438 1121.0625 L 539.660156 1121.0625 C 539.660156 1148.636719 549.015625 1181.160156 537.398438 1202.210938 C 520.886719 1232.203125 530.71875 1259.847656 528.097656 1288.175781 C 525.351562 1317.964844 527.726562 1348.273438 528.71875 1378.324219 C 528.945312 1385.195312 530.84375 1393.726562 535.273438 1398.335938 C 541.273438 1404.585938 550.9375 1411.964844 558.15625 1411.152344 C 565.378906 1410.339844 574.238281 1401.21875 577.5625 1393.636719 C 581.71875 1384.164062 582.003906 1372.558594 582.136719 1361.859375 C 582.703125 1316.746094 582.984375 1271.609375 582.332031 1226.507812 C 582.230469 1219.535156 576.679688 1212.640625 573.675781 1205.714844 L 568.824219 1207.171875 L 568.824219 1121.398438 L 711.136719 1121.398438 L 711.136719 1209.320312 L 692.851562 1211.003906 C 692.851562 1255.824219 693.914062 1300.191406 692.445312 1344.453125 C 691.5625 1371.226562 689.234375 1398.460938 683.109375 1424.441406 C 673.378906 1465.667969 645.671875 1490.269531 603.035156 1496.574219 C 567.019531 1501.90625 531.183594 1502.132812 495.746094 1492.054688 C 463.742188 1483.011719 441.792969 1462.1875 431.636719 1431.527344 C 424.671875 1410.410156 420.710938 1388.742188 419.757812 1366.523438 C 417.894531 1320.871094 418.964844 1275.101562 418.84375 1229.378906 C 418.863281 1223.503906 418.875 1217.625 418.875 1211.105469 Z M 418.875 1211.105469 " fill-opacity="1" fill-rule="nonzero"/><path fill="#853256" d="M 723.953125 885.351562 C 724.257812 942.25 711.996094 990.007812 680.589844 1031.027344 C 619 1111.5 499.777344 1107.875 446.664062 1021.535156 C 393.789062 935.492188 394.679688 845.628906 446.460938 759.03125 C 477.03125 707.960938 526.15625 687.023438 585.3125 693.65625 C 638.992188 699.65625 674.769531 731.296875 698.46875 778.128906 C 716.460938 813.625 725.003906 851.257812 723.953125 885.351562 Z M 528.503906 890.015625 L 531.636719 890.332031 C 531.636719 902.957031 530.753906 915.648438 531.859375 928.167969 C 533.203125 943.054688 535.488281 957.792969 538.710938 972.390625 C 541.894531 986.886719 549.714844 997.691406 566.667969 997.996094 C 583.832031 998.3125 591.472656 987.101562 594.917969 972.886719 C 598.433594 958.375 602.421875 943.347656 601.992188 928.65625 C 600.820312 888.0625 598.308594 847.519531 594.46875 807.023438 C 593.066406 792.390625 582.476562 781.507812 566.214844 781.914062 C 549.953125 782.320312 541.117188 793.578125 538.789062 808.257812 C 534.496094 835.378906 531.839844 862.75 528.503906 890.015625 Z M 528.503906 890.015625 " fill-opacity="1" fill-rule="nonzero"/><path fill="#853256" d="M 1488.335938 1493.714844 L 1488.335938 1404.257812 L 1508.5625 1401.140625 L 1508.5625 1204.019531 L 1488.671875 1202.269531 L 1488.671875 1113.941406 L 1754.378906 1113.941406 L 1754.378906 1233.933594 L 1683.328125 1233.933594 C 1682.5625 1224.328125 1681.757812 1214.507812 1680.898438 1203.941406 L 1619.390625 1203.941406 L 1619.390625 1262.707031 L 1671.597656 1262.707031 L 1671.597656 1339.789062 L 1618.972656 1339.789062 L 1618.972656 1401.273438 L 1680.921875 1401.273438 C 1681.679688 1391.828125 1682.367188 1383.082031 1683.183594 1373.621094 L 1754.378906 1373.621094 L 1754.378906 1493.660156 Z M 1488.335938 1493.714844 " fill-opacity="1" fill-rule="nonzero"/><path fill="#853256" d="M 1404.292969 989.679688 L 1404.292969 960.703125 L 1476.527344 960.703125 L 1476.527344 1080.320312 L 1211.421875 1080.320312 L 1211.421875 991.804688 L 1232.699219 989.464844 L 1232.699219 792.324219 L 1211.363281 790.390625 L 1211.363281 701.722656 L 1476.796875 701.722656 L 1476.796875 821.410156 L 1405.34375 821.410156 C 1404.753906 811.984375 1404.210938 802.675781 1403.535156 792.34375 L 1342.621094 792.34375 L 1342.621094 850.871094 L 1395.738281 850.871094 L 1395.738281 927.929688 L 1342.136719 927.929688 L 1342.136719 989.703125 Z M 1404.292969 989.679688 " fill-opacity="1" fill-rule="nonzero"/><path fill="#853256" d="M 1834.195312 1493.851562 L 1772.039062 1493.851562 L 1772.039062 1373.769531 L 1833.3125 1373.769531 C 1838.464844 1384.121094 1842.117188 1397.714844 1850.660156 1406.652344 C 1857.972656 1414.292969 1870.820312 1419.785156 1881.351562 1420.023438 C 1887.433594 1420.167969 1898.371094 1408.339844 1898.878906 1401.296875 C 1899.558594 1391.996094 1894.640625 1379.441406 1887.703125 1373.046875 C 1874.683594 1361.011719 1858.921875 1351.675781 1843.550781 1342.453125 C 1779.464844 1304.03125 1755.089844 1243.007812 1776.449219 1173.078125 C 1796.902344 1106.097656 1863.800781 1086.707031 1918.363281 1133.832031 C 1919.109375 1126.722656 1919.742188 1120.6875 1920.488281 1113.625 L 1982.3125 1113.625 L 1982.3125 1220.984375 C 1963.273438 1220.984375 1944.230469 1221.523438 1925.277344 1220.484375 C 1921.886719 1220.292969 1918.339844 1213.910156 1915.71875 1209.839844 C 1910.597656 1201.929688 1907.207031 1192.550781 1901.027344 1185.578125 C 1891.691406 1174.988281 1873.273438 1173.9375 1865.167969 1181.882812 C 1856.402344 1190.503906 1857.113281 1212.519531 1868.0625 1220.972656 C 1881.792969 1231.582031 1896.609375 1240.917969 1911.433594 1250.027344 C 1956.152344 1277.507812 1988.019531 1313.558594 1993.183594 1368.230469 C 1996.722656 1405.671875 1988.925781 1440.285156 1964.414062 1469.203125 C 1931.640625 1507.898438 1887.703125 1509.015625 1837.179688 1472.730469 C 1836.148438 1480.097656 1835.234375 1486.515625 1834.195312 1493.851562 Z M 1834.195312 1493.851562 " fill-opacity="1" fill-rule="nonzero"/><path fill="#853256" d="M 2068.144531 1471.65625 C 2067.53125 1480.210938 2067.011719 1486.652344 2066.550781 1493.875 L 2006.382812 1493.875 C 2005.785156 1490.324219 2004.914062 1487.488281 2004.902344 1484.652344 C 2004.8125 1448.027344 2004.847656 1411.402344 2004.847656 1373.542969 L 2066.140625 1373.542969 C 2070.324219 1382.890625 2072.820312 1395.015625 2080.054688 1402.8125 C 2084.246094 1407.21875 2088.964844 1410.957031 2094.214844 1414.03125 C 2099.460938 1417.105469 2105.035156 1419.390625 2110.925781 1420.894531 C 2116.023438 1422.089844 2129.289062 1411.445312 2129.449219 1405.910156 C 2129.765625 1394.6875 2126.769531 1380.425781 2119.503906 1372.628906 C 2108.375 1360.683594 2092.960938 1352.285156 2078.550781 1343.84375 C 2012.476562 1304.914062 1988.609375 1245.289062 2008.484375 1174.1875 C 2026.679688 1109.015625 2097.128906 1085.804688 2150.074219 1132.847656 C 2150.941406 1126.363281 2151.679688 1120.878906 2152.605469 1114 L 2215.335938 1114 L 2215.335938 1220.089844 L 2152.75 1220.089844 C 2148.140625 1210.371094 2145.699219 1198.449219 2138.433594 1191.714844 C 2130.523438 1184.402344 2118.464844 1180.324219 2107.546875 1178.152344 C 2103.617188 1177.375 2095.117188 1185.441406 2093.320312 1190.96875 C 2089.082031 1203.78125 2092.011719 1215.921875 2104.382812 1224.179688 C 2124.375 1237.515625 2144.492188 1250.679688 2164.175781 1264.445312 C 2218.972656 1302.753906 2236.5 1359.972656 2221.957031 1419.570312 C 2203.851562 1493.804688 2135.664062 1525.867188 2068.144531 1471.65625 Z M 2068.144531 1471.65625 " fill-opacity="1" fill-rule="nonzero"/><path fill="#853256" d="M 796.074219 1472.957031 L 793.609375 1493.386719 L 732.144531 1493.386719 L 732.144531 1373.464844 L 793.257812 1373.464844 C 798.128906 1384.1875 801.972656 1395.613281 808.164062 1405.582031 C 818.121094 1421.605469 837.703125 1426.203125 850.101562 1416.882812 C 861.742188 1408.132812 862.316406 1386.097656 848.824219 1373.722656 C 837.003906 1362.886719 823.105469 1353.925781 809.070312 1345.957031 C 763.402344 1320.046875 732.222656 1284.503906 729.320312 1229.820312 C 727.667969 1198.6875 732.304688 1168.683594 750.789062 1142.351562 C 776.34375 1105.875 823.25 1096.664062 860.871094 1120.597656 C 866.328125 1124.078125 871.402344 1128.148438 878.160156 1133.027344 C 878.75 1126 879.210938 1120.359375 879.765625 1113.648438 L 941.230469 1113.648438 L 941.230469 1221.003906 C 922.019531 1221.003906 904.039062 1221.535156 886.207031 1220.566406 C 882.570312 1220.359375 878.457031 1215.027344 875.925781 1211.171875 C 871.054688 1203.75 868.226562 1194.808594 862.644531 1188.074219 C 851.957031 1175.191406 833.546875 1173.023438 824.460938 1182.234375 C 813.828125 1192.992188 815.917969 1212.949219 830.109375 1223.445312 C 844.585938 1234.125 860.203125 1243.277344 875.3125 1253.089844 C 911.101562 1276.277344 940.859375 1304.460938 949.015625 1348.5 C 956.589844 1389.183594 954.089844 1428.589844 928.472656 1463.699219 C 901.238281 1500.992188 854.542969 1509.964844 814.980469 1485.261719 C 809.035156 1481.578125 803.203125 1477.613281 796.074219 1472.957031 Z M 796.074219 1472.957031 " fill-opacity="1" fill-rule="nonzero"/><path fill="#853256" d="M 992.964844 1203.738281 L 968.105469 1202.460938 L 968.105469 1113.75 L 1127.445312 1113.75 L 1127.445312 1201.792969 L 1103.714844 1204.109375 L 1103.714844 1401.058594 L 1127.183594 1403.671875 L 1127.183594 1493.183594 L 968.171875 1493.183594 L 968.171875 1403.761719 L 992.964844 1401.296875 Z M 992.964844 1203.738281 " fill-opacity="1" fill-rule="nonzero"/></svg>