<svg xmlns="http://www.w3.org/2000/svg" xmlns:xlink="http://www.w3.org/1999/xlink" width="3000" zoomAndPan="magnify" viewBox="0 0 2250 2250.000011" height="3000" preserveAspectRatio="xMidYMid meet" version="1.0"><path fill="#853256" d="M 1577.828125 1003.351562 L 1585.757812 1003.351562 C 1665.566406 1003.351562 1745.371094 1003.382812 1825.171875 1003.445312 C 1830.582031 1003.445312 1834.199219 1002.09375 1837.730469 997.640625 C 1883.066406 940.1875 1928.546875 882.84375 1974.167969 825.609375 C 1975.523438 823.914062 1976.984375 822.320312 1979.488281 819.382812 C 1979.976562 826.148438 1980.410156 831.167969 1980.71875 836.257812 C 1984.046875 890.023438 1987.484375 943.777344 1990.570312 997.542969 C 1990.9375 1003.835938 1994.632812 1003.40625 1998.785156 1003.390625 C 2046.125 1003.390625 2093.46875 1003.390625 2140.816406 1003.390625 L 2245.710938 1003.390625 C 2241.988281 1005.746094 2239.863281 1007.03125 2237.792969 1008.398438 C 2162.089844 1058.550781 2086.394531 1108.710938 2010.707031 1158.871094 C 2001.464844 1165.003906 2001.628906 1165.042969 2003.941406 1176.167969 C 2012.0625 1215.859375 2019.9375 1255.578125 2028.003906 1295.257812 C 2036.621094 1337.597656 2045.289062 1379.925781 2054.015625 1422.238281 C 2054.5 1424.648438 2054.773438 1427.097656 2055.367188 1430.953125 C 2046.789062 1423.59375 2039.035156 1417.042969 2031.386719 1410.382812 C 1974.261719 1360.761719 1917.140625 1311.140625 1860.03125 1261.519531 C 1847.972656 1251.058594 1847.851562 1251.179688 1833.871094 1258.433594 L 1580.804688 1389.933594 C 1577.855469 1391.65625 1574.695312 1392.804688 1571.332031 1393.386719 C 1585.214844 1374.3125 1599.097656 1355.246094 1612.972656 1336.183594 C 1652.246094 1282.277344 1691.554688 1228.40625 1730.898438 1174.570312 C 1734.554688 1169.589844 1734.539062 1166.789062 1730.113281 1162.203125 C 1680.195312 1110.476562 1630.421875 1058.601562 1580.792969 1006.570312 C 1580.046875 1005.933594 1579.492188 1005.246094 1577.828125 1003.351562 Z M 1577.828125 1003.351562 " fill-opacity="1" fill-rule="nonzero"/><path fill="#853256" d="M 1463.488281 1328.386719 C 1461.035156 1328.5625 1459.292969 1328.792969 1457.558594 1328.808594 C 1432.089844 1328.808594 1406.621094 1328.699219 1381.152344 1328.914062 C 1376.523438 1328.914062 1374.019531 1327.792969 1373.25 1323.027344 C 1372.261719 1317.058594 1370.878906 1311.144531 1369.566406 1304.773438 C 1368.675781 1305.027344 1367.851562 1305.417969 1367.089844 1305.949219 C 1345.4375 1326.25 1318.914062 1334.367188 1290.128906 1336.277344 C 1269.4375 1337.628906 1249.097656 1335.382812 1230.21875 1325.898438 C 1199.621094 1310.511719 1188.046875 1284.296875 1188.726562 1251.464844 C 1189.441406 1216.183594 1207.320312 1193.367188 1240 1181.269531 C 1262.398438 1172.972656 1285.878906 1170.105469 1309.292969 1166.777344 C 1322.011719 1164.960938 1334.746094 1163.175781 1347.332031 1160.726562 C 1362.367188 1157.804688 1368.214844 1151.335938 1369.121094 1138.234375 C 1369.851562 1127.542969 1364.925781 1119.777344 1355.886719 1115.011719 C 1353.953125 1113.960938 1351.96875 1113.015625 1349.929688 1112.179688 C 1347.894531 1111.34375 1345.820312 1110.617188 1343.703125 1110.007812 C 1341.589844 1109.394531 1339.449219 1108.898438 1337.28125 1108.519531 C 1335.113281 1108.140625 1332.929688 1107.878906 1330.734375 1107.738281 C 1328.535156 1107.59375 1326.339844 1107.570312 1324.140625 1107.667969 C 1321.941406 1107.761719 1319.753906 1107.976562 1317.578125 1108.308594 C 1315.402344 1108.640625 1313.25 1109.09375 1311.125 1109.65625 C 1308.996094 1110.222656 1306.90625 1110.902344 1304.851562 1111.695312 C 1293.523438 1115.835938 1286.988281 1124.808594 1283.363281 1136.21875 C 1282.683594 1138.371094 1279.882812 1141.359375 1278.03125 1141.386719 C 1252.804688 1141.699219 1227.566406 1141.550781 1202.324219 1141.480469 C 1201.460938 1141.328125 1200.632812 1141.066406 1199.835938 1140.699219 C 1199.890625 1136.550781 1200.25 1132.429688 1200.90625 1128.335938 C 1201.566406 1124.242188 1202.519531 1120.21875 1203.765625 1116.265625 C 1205.011719 1112.308594 1206.539062 1108.464844 1208.347656 1104.734375 C 1210.15625 1101.003906 1212.226562 1097.421875 1214.558594 1093.996094 C 1216.976562 1090.441406 1219.664062 1087.101562 1222.617188 1083.980469 C 1225.570312 1080.855469 1228.75 1077.984375 1232.164062 1075.371094 C 1235.574219 1072.757812 1239.175781 1070.429688 1242.957031 1068.394531 C 1246.742188 1066.355469 1250.664062 1064.628906 1254.726562 1063.222656 C 1303.269531 1045.910156 1352.554688 1045.480469 1401.289062 1061.515625 C 1434.621094 1072.492188 1452.039062 1097.664062 1452.835938 1132.535156 C 1453.878906 1177.832031 1453.148438 1223.207031 1453.457031 1268.488281 C 1453.566406 1285.621094 1454.390625 1302.769531 1460.128906 1319.199219 C 1461.144531 1322.082031 1462.242188 1324.992188 1463.488281 1328.386719 Z M 1368.121094 1203.976562 C 1355.722656 1206.941406 1343.988281 1209.785156 1332.230469 1212.542969 C 1317.34375 1216.023438 1301.984375 1217.808594 1289.019531 1226.929688 C 1271.003906 1239.582031 1273.414062 1268.625 1293.402344 1277.785156 C 1305.8125 1283.472656 1318.804688 1282.835938 1331.78125 1280.074219 C 1346.84375 1276.878906 1357.074219 1267.894531 1362.476562 1253.535156 C 1368.59375 1237.40625 1368.726562 1220.582031 1368.121094 1203.976562 Z M 1368.121094 1203.976562 " fill-opacity="1" fill-rule="nonzero"/><path fill="#853256" d="M 546.367188 1246.566406 C 540.761719 1267.285156 531.34375 1284.351562 516.824219 1298.492188 C 494.046875 1320.660156 466.046875 1331.417969 435.042969 1335.03125 C 393.089844 1339.851562 353.058594 1334.316406 317.546875 1309.550781 C 289.128906 1289.738281 272.890625 1261.695312 266.3125 1228.105469 C 258.894531 1190.445312 261.710938 1153.757812 281.890625 1120.25 C 309.714844 1074.035156 351.882812 1051.433594 405.175781 1049.417969 C 438.007812 1048.171875 468.78125 1055.492188 495.628906 1075.523438 C 522.925781 1095.820312 538.828125 1123.742188 545.796875 1156.421875 C 549.34375 1173.042969 549.652344 1190.351562 551.535156 1207.332031 C 552.144531 1212.910156 550.03125 1214.601562 544.347656 1214.574219 C 483.03125 1214.382812 421.710938 1214.453125 360.40625 1214.453125 L 351.460938 1214.453125 C 352.464844 1220.878906 353.046875 1226.78125 354.34375 1232.519531 C 359.757812 1256.078125 376.632812 1271.765625 400.761719 1275.703125 C 426.207031 1279.9375 448.902344 1270.519531 461.363281 1250.773438 C 462.515625 1248.976562 464.921875 1246.808594 466.777344 1246.796875 C 492.871094 1246.484375 518.972656 1246.566406 546.367188 1246.566406 Z M 461.175781 1164.5 C 463.015625 1148.125 452 1126.839844 435.988281 1117.136719 C 417.800781 1106.039062 398.964844 1106.5 380.828125 1117.054688 C 363.019531 1127.421875 355.332031 1144.417969 351.921875 1164.570312 Z M 461.175781 1164.5 " fill-opacity="1" fill-rule="nonzero"/><path fill="#853256" d="M 734.855469 1239.933594 L 818.027344 1239.933594 C 824.0625 1271.574219 849.316406 1286.054688 882.253906 1277.191406 C 890.484375 1274.984375 898.023438 1271.695312 903.355469 1264.699219 C 911.390625 1254.171875 909.347656 1239.515625 897.792969 1233.113281 C 889.625 1228.820312 881.054688 1225.601562 872.078125 1223.464844 C 845.703125 1216.699219 818.976562 1211.191406 792.75 1203.871094 C 775.332031 1199.023438 759.929688 1189.808594 749.765625 1174.015625 C 725.71875 1136.664062 740.402344 1086.875 781.367188 1066.726562 C 811.789062 1051.757812 844.335938 1048.644531 877.574219 1050.324219 C 900.675781 1051.472656 923.316406 1055.277344 944.074219 1066.304688 C 972.035156 1081.191406 985.621094 1104.917969 987.136719 1136.882812 L 906.492188 1136.882812 C 906.34375 1136.707031 905.871094 1136.378906 905.832031 1136.015625 C 903.800781 1116.160156 891.851562 1109.707031 876.410156 1108.367188 C 865.367188 1107.394531 853.984375 1108.554688 842.941406 1110.097656 C 835.566406 1111.128906 829.695312 1115.757812 828.054688 1123.929688 C 826.308594 1132.726562 830.628906 1138.679688 837.527344 1143.226562 C 850.25 1151.644531 864.972656 1154.417969 879.480469 1157.503906 C 897.980469 1161.457031 916.765625 1164.273438 935.089844 1168.859375 C 963.765625 1176.074219 985.363281 1192.351562 993.890625 1221.839844 C 1004.378906 1258.082031 987.21875 1297.070312 953.222656 1316.273438 C 926.996094 1331.160156 898.386719 1336.332031 868.722656 1336.492188 C 838.015625 1336.667969 808.027344 1332.933594 780.390625 1318.035156 C 751.214844 1302.324219 734.421875 1272.984375 734.855469 1239.933594 Z M 734.855469 1239.933594 " fill-opacity="1" fill-rule="nonzero"/><path fill="#853256" d="M 2.6875 1186.886719 C 30.90625 1186.886719 58.175781 1186.886719 85.445312 1186.886719 C 89.328125 1186.886719 90.34375 1188.238281 90.273438 1192.109375 C 90.085938 1202.9375 90.070312 1213.761719 90.597656 1224.589844 C 91.574219 1244.523438 104.023438 1255.917969 125.054688 1256.660156 C 144 1257.339844 156.179688 1246.703125 158.507812 1226.996094 C 159.371094 1219.835938 159.824219 1212.652344 159.863281 1205.4375 C 159.953125 1130.332031 159.953125 1055.230469 159.863281 980.140625 C 159.863281 971.398438 159.863281 971.398438 168.738281 971.386719 L 252.523438 971.386719 C 252.671875 974.09375 252.886719 976.242188 252.886719 978.421875 C 252.886719 1060.285156 253.199219 1142.171875 252.535156 1224.007812 C 252.304688 1253.402344 245.472656 1281.277344 224.332031 1303.636719 C 207.824219 1321.121094 186.859375 1329.6875 163.652344 1333.542969 C 133.878906 1338.496094 104.375 1338.238281 75.359375 1329.199219 C 38.292969 1317.65625 16.507812 1291.496094 8.671875 1254.46875 C 4.476562 1234.589844 4.285156 1213.871094 2.351562 1193.476562 C 2.3125 1191.273438 2.425781 1189.074219 2.6875 1186.886719 Z M 2.6875 1186.886719 " fill-opacity="1" fill-rule="nonzero"/><path fill="#853256" d="M 1037.992188 1058.945312 L 1037.992188 1050.824219 C 1037.992188 1026.925781 1037.992188 1003.011719 1037.992188 979.097656 C 1037.992188 975.390625 1037.992188 972.601562 1043.164062 972.628906 C 1070.230469 972.820312 1097.296875 972.726562 1124.363281 972.765625 C 1125.441406 972.886719 1126.5 973.097656 1127.542969 973.402344 L 1127.542969 1058.875 L 1137.175781 1058.875 C 1150.480469 1058.875 1163.785156 1059.011719 1177.085938 1058.875 C 1181.6875 1058.796875 1183.421875 1060.230469 1183.339844 1065.046875 C 1183.066406 1081.058594 1183.09375 1097.066406 1183.339844 1113.078125 C 1183.339844 1117.878906 1181.742188 1119.289062 1177.085938 1119.191406 C 1163.335938 1118.949219 1149.585938 1119.113281 1135.839844 1119.113281 L 1127.582031 1119.113281 L 1127.582031 1126.949219 C 1127.582031 1163.261719 1127.582031 1199.570312 1127.582031 1235.875 C 1127.582031 1256.363281 1135.484375 1264.46875 1156.179688 1264.875 C 1163.378906 1265.027344 1170.605469 1264.753906 1177.832031 1264.253906 C 1182.082031 1263.957031 1183.378906 1265.457031 1183.351562 1269.546875 C 1183.21875 1288.046875 1183.351562 1306.542969 1183.09375 1325.03125 C 1183.09375 1326.789062 1180.390625 1329.945312 1178.875 1330.050781 C 1150.117188 1331.960938 1121.34375 1334.949219 1092.640625 1329.078125 C 1061.515625 1322.71875 1045.871094 1307.101562 1041.078125 1275.566406 C 1039.191406 1262.621094 1038.214844 1249.609375 1038.144531 1236.523438 C 1037.75 1199.753906 1037.898438 1163 1038.144531 1126.230469 C 1038.144531 1120.628906 1036.601562 1118.773438 1030.945312 1118.992188 C 1020.117188 1119.394531 1009.289062 1118.992188 998.464844 1119.179688 C 994.296875 1119.179688 992.359375 1118.246094 992.414062 1113.578125 C 992.632812 1097.121094 992.632812 1080.65625 992.414062 1064.179688 C 992.414062 1059.785156 994.214844 1058.847656 998.058594 1058.902344 C 1008.65625 1059.039062 1019.25 1058.902344 1029.847656 1058.902344 Z M 1037.992188 1058.945312 " fill-opacity="1" fill-rule="nonzero"/><path fill="#853256" d="M 585.964844 1119.085938 L 541.046875 1119.085938 L 541.046875 1059.148438 L 585.707031 1059.148438 L 585.707031 973.414062 L 675.390625 973.414062 L 675.390625 1058.945312 L 686.054688 1058.945312 C 699.125 1058.945312 712.199219 1059.09375 725.300781 1058.863281 C 729.628906 1058.78125 731.308594 1060.039062 731.253906 1064.558594 C 731.050781 1080.800781 731.011719 1097.039062 731.253906 1113.28125 C 731.335938 1118.246094 729.359375 1119.273438 724.851562 1119.21875 C 708.882812 1118.992188 692.902344 1119.125 676.132812 1119.125 C 675.957031 1121.914062 675.6875 1124.296875 675.6875 1126.675781 C 675.6875 1162.523438 675.6875 1198.367188 675.6875 1234.210938 C 675.6875 1237.582031 675.6875 1240.976562 676.066406 1244.332031 C 677.039062 1254.402344 682.480469 1261.628906 692.507812 1263.078125 C 702.769531 1264.347656 713.0625 1264.75 723.390625 1264.28125 C 729.128906 1264.132812 731.390625 1265.09375 731.242188 1271.425781 C 730.820312 1288.546875 730.929688 1305.691406 731.242188 1322.851562 C 731.320312 1328.101562 730.117188 1330.308594 724.257812 1330.605469 C 699.074219 1331.851562 673.902344 1334.394531 648.730469 1330.605469 C 626.859375 1327.304688 606.234375 1321.023438 596.464844 1298.777344 C 591.851562 1288.261719 588.183594 1276.433594 587.832031 1265.078125 C 586.410156 1219.363281 586.476562 1173.609375 585.949219 1127.867188 C 585.9375 1125.175781 585.964844 1122.550781 585.964844 1119.085938 Z M 585.964844 1119.085938 " fill-opacity="1" fill-rule="nonzero"/><path fill="#853256" d="M 1472.257812 1328.628906 L 1472.257812 1320.511719 C 1472.257812 1235.703125 1472.210938 1150.898438 1472.121094 1066.089844 C 1472.121094 1059.6875 1473.703125 1057.660156 1480.242188 1057.765625 C 1503.449219 1058.171875 1526.671875 1057.929688 1549.894531 1057.929688 L 1558.015625 1057.929688 L 1558.015625 1103.941406 L 1559.625 1104.605469 C 1566.214844 1089.488281 1575.308594 1076.496094 1588.042969 1068.253906 L 1654.355469 1132.238281 L 1653.828125 1133.59375 C 1650.714844 1133.023438 1647.617188 1132.347656 1644.492188 1131.902344 C 1619.792969 1128.394531 1596.636719 1131.035156 1578.179688 1149.953125 C 1564.644531 1163.71875 1560.882812 1181.078125 1560.925781 1199.660156 C 1561.003906 1240.476562 1560.828125 1281.292969 1561.085938 1322.121094 C 1561.085938 1327.535156 1559.867188 1329.078125 1554.320312 1329.007812 C 1529.082031 1328.726562 1503.828125 1328.902344 1478.535156 1328.875 C 1476.855469 1328.914062 1475.085938 1328.765625 1472.257812 1328.628906 Z M 1472.257812 1328.628906 " fill-opacity="1" fill-rule="nonzero"/></svg>