<svg xmlns="http://www.w3.org/2000/svg" xmlns:xlink="http://www.w3.org/1999/xlink" width="500" zoomAndPan="magnify" viewBox="0 0 375 374.999991" height="500" preserveAspectRatio="xMidYMid meet" version="1.0"><defs><clipPath id="0cf43ecff1"><path d="M 8.671875 0 L 366.421875 0 L 366.421875 271 L 8.671875 271 Z M 8.671875 0 " clip-rule="nonzero"/></clipPath></defs><path fill="#b4d2d7" d="M 218.660156 323.410156 L 218.660156 351.90625 C 218.660156 364.617188 208.277344 375 195.5625 375 L 179.179688 375 C 166.460938 375 156.078125 364.625 156.078125 351.90625 L 156.078125 331.164062 Z M 218.660156 323.410156 " fill-opacity="1" fill-rule="evenodd"/><path fill="#9bb9c3" d="M 218.660156 323.410156 L 218.660156 351.90625 C 218.660156 364.617188 208.277344 375 195.5625 375 L 183.890625 375 C 196.605469 375 206.988281 364.617188 206.988281 351.90625 L 206.988281 324.855469 Z M 218.660156 323.410156 " fill-opacity="1" fill-rule="evenodd"/><path fill="#ffda2d" d="M 187.371094 65.550781 C 250.28125 65.550781 301.277344 116.535156 301.277344 179.429688 C 301.277344 221.054688 278.941406 257.464844 245.597656 277.324219 C 238.40625 281.609375 234.320312 288.796875 234.320312 297.164062 L 234.320312 324.929688 C 234.320312 333.550781 227.285156 340.585938 218.660156 340.585938 L 156.078125 340.585938 C 147.453125 340.585938 140.417969 333.554688 140.417969 324.929688 L 140.417969 297.164062 C 140.417969 288.792969 136.332031 281.609375 129.144531 277.324219 C 95.796875 257.464844 73.460938 221.054688 73.460938 179.429688 C 73.460938 116.535156 124.460938 65.550781 187.371094 65.550781 Z M 187.371094 65.550781 " fill-opacity="1" fill-rule="evenodd"/><path fill="#ffc700" d="M 187.371094 65.550781 C 250.28125 65.550781 301.277344 116.535156 301.277344 179.425781 C 301.277344 221.054688 278.941406 257.460938 245.597656 277.324219 C 238.40625 281.609375 234.320312 288.796875 234.320312 297.164062 L 234.320312 324.929688 C 234.320312 333.550781 227.285156 340.585938 218.660156 340.585938 L 200.386719 340.585938 C 209.011719 340.585938 216.042969 333.554688 216.042969 324.929688 L 216.042969 297.164062 C 216.042969 288.796875 220.132812 281.609375 227.320312 277.324219 C 260.667969 257.460938 283.003906 221.054688 283.003906 179.425781 C 283.003906 119.609375 236.871094 70.570312 178.234375 65.914062 C 181.246094 65.675781 184.292969 65.550781 187.371094 65.550781 Z M 187.371094 65.550781 " fill-opacity="1" fill-rule="evenodd"/><path fill="#ffc700" d="M 140.421875 307.441406 L 140.421875 324.929688 C 140.421875 333.550781 147.453125 340.582031 156.078125 340.582031 L 218.660156 340.582031 C 227.285156 340.582031 234.320312 333.550781 234.320312 324.929688 L 234.320312 307.441406 C 203.019531 307.441406 171.71875 307.441406 140.421875 307.441406 Z M 140.421875 307.441406 " fill-opacity="1" fill-rule="evenodd"/><path fill="#fdb800" d="M 200.386719 340.585938 L 218.660156 340.585938 C 227.285156 340.585938 234.320312 333.554688 234.320312 324.929688 L 234.320312 307.441406 L 216.042969 307.441406 L 216.042969 324.929688 C 216.042969 333.550781 209.011719 340.585938 200.386719 340.585938 Z M 200.386719 340.585938 " fill-opacity="1" fill-rule="evenodd"/><g clip-path="url(#0cf43ecff1)"><path fill="#ffda2d" d="M 66.445312 101.859375 C 69.296875 103.496094 70.277344 107.132812 68.640625 109.984375 C 67.003906 112.832031 63.367188 113.8125 60.515625 112.175781 L 34.933594 97.410156 C 32.082031 95.773438 31.097656 92.136719 32.738281 89.285156 C 34.375 86.4375 38.011719 85.457031 40.863281 87.09375 Z M 264.058594 57.65625 C 262.40625 60.507812 258.757812 61.480469 255.910156 59.828125 C 253.058594 58.179688 252.085938 54.53125 253.738281 51.683594 L 268.507812 26.105469 C 270.160156 23.257812 273.808594 22.285156 276.65625 23.933594 C 279.507812 25.585938 280.480469 29.234375 278.828125 32.082031 Z M 308.269531 255.195312 C 305.421875 253.542969 304.449219 249.898438 306.097656 247.046875 C 307.75 244.199219 311.398438 243.226562 314.25 244.878906 L 339.832031 259.644531 C 342.679688 261.292969 343.652344 264.941406 342.003906 267.792969 C 340.351562 270.640625 336.703125 271.613281 333.855469 269.960938 Z M 330.878906 184.601562 C 327.589844 184.601562 324.921875 181.933594 324.921875 178.648438 C 324.921875 175.359375 327.589844 172.695312 330.878906 172.695312 L 360.417969 172.695312 C 363.707031 172.695312 366.371094 175.359375 366.371094 178.648438 C 366.371094 181.933594 363.707031 184.601562 360.417969 184.601562 Z M 314.25 112.175781 C 311.398438 113.828125 307.75 112.855469 306.097656 110.007812 C 304.449219 107.15625 305.421875 103.507812 308.269531 101.859375 L 333.855469 87.09375 C 336.703125 85.441406 340.351562 86.414062 342.003906 89.265625 C 343.652344 92.113281 342.679688 95.761719 339.832031 97.410156 Z M 121.003906 51.683594 C 122.652344 54.53125 121.683594 58.179688 118.832031 59.828125 C 115.980469 61.480469 112.332031 60.507812 110.683594 57.65625 L 95.914062 32.082031 C 94.261719 29.234375 95.234375 25.585938 98.082031 23.933594 C 100.933594 22.285156 104.582031 23.257812 106.234375 26.105469 Z M 193.347656 35.507812 C 193.347656 38.808594 190.671875 41.484375 187.371094 41.484375 C 184.070312 41.484375 181.394531 38.808594 181.394531 35.507812 L 181.394531 5.976562 C 181.394531 2.675781 184.070312 0 187.371094 0 C 190.671875 0 193.347656 2.675781 193.347656 5.976562 Z M 60.492188 244.878906 C 63.339844 243.226562 66.988281 244.199219 68.640625 247.046875 C 70.292969 249.898438 69.320312 253.542969 66.46875 255.195312 L 40.886719 269.960938 C 38.035156 271.613281 34.386719 270.640625 32.738281 267.792969 C 31.085938 264.941406 32.058594 261.292969 34.910156 259.644531 Z M 44.316406 172.550781 C 47.617188 172.550781 50.292969 175.226562 50.292969 178.527344 C 50.292969 181.828125 47.617188 184.503906 44.316406 184.503906 L 14.773438 184.503906 C 11.472656 184.503906 8.796875 181.828125 8.796875 178.527344 C 8.796875 175.226562 11.472656 172.550781 14.773438 172.550781 Z M 44.316406 172.550781 " fill-opacity="1" fill-rule="evenodd"/></g><path fill="#fdb800" d="M 258.296875 179.429688 C 258.296875 180.585938 258.269531 181.742188 258.210938 182.898438 C 258.15625 184.054688 258.070312 185.207031 257.957031 186.355469 C 257.84375 187.507812 257.703125 188.65625 257.53125 189.800781 C 257.363281 190.945312 257.164062 192.085938 256.9375 193.21875 C 256.710938 194.351562 256.460938 195.480469 256.179688 196.605469 C 255.898438 197.726562 255.589844 198.839844 255.253906 199.945312 C 254.917969 201.054688 254.554688 202.152344 254.164062 203.242188 C 253.773438 204.332031 253.359375 205.410156 252.914062 206.476562 C 252.472656 207.546875 252.003906 208.605469 251.507812 209.648438 C 251.015625 210.695312 250.492188 211.726562 249.949219 212.75 C 249.402344 213.769531 248.832031 214.773438 248.238281 215.765625 C 247.644531 216.757812 247.023438 217.738281 246.382812 218.699219 C 245.738281 219.660156 245.074219 220.605469 244.382812 221.535156 C 243.695312 222.464844 242.984375 223.375 242.25 224.269531 C 241.515625 225.164062 240.757812 226.039062 239.980469 226.898438 C 239.203125 227.753906 238.40625 228.589844 237.589844 229.410156 C 236.769531 230.226562 235.933594 231.023438 235.074219 231.800781 C 234.21875 232.578125 233.34375 233.332031 232.449219 234.066406 C 231.554688 234.800781 230.640625 235.511719 229.710938 236.203125 C 228.78125 236.890625 227.835938 237.558594 226.875 238.199219 C 225.914062 238.84375 224.9375 239.460938 223.945312 240.054688 C 222.949219 240.648438 221.945312 241.21875 220.925781 241.765625 C 219.902344 242.3125 218.871094 242.832031 217.824219 243.324219 C 216.777344 243.820312 215.722656 244.289062 214.652344 244.730469 C 213.582031 245.171875 212.503906 245.589844 211.414062 245.980469 C 210.324219 246.371094 209.226562 246.730469 208.121094 247.066406 C 207.011719 247.402344 205.898438 247.710938 204.773438 247.992188 C 203.652344 248.273438 202.523438 248.527344 201.390625 248.753906 C 200.253906 248.980469 199.113281 249.175781 197.96875 249.347656 C 196.824219 249.515625 195.675781 249.65625 194.527344 249.769531 C 193.375 249.882812 192.222656 249.96875 191.066406 250.027344 C 189.910156 250.082031 188.753906 250.113281 187.597656 250.113281 C 186.4375 250.113281 185.28125 250.082031 184.128906 250.027344 C 182.972656 249.96875 181.816406 249.882812 180.667969 249.769531 C 179.515625 249.65625 178.367188 249.515625 177.222656 249.347656 C 176.078125 249.175781 174.9375 248.980469 173.804688 248.753906 C 172.667969 248.527344 171.539062 248.273438 170.417969 247.992188 C 169.292969 247.710938 168.179688 247.402344 167.074219 247.066406 C 165.964844 246.730469 164.867188 246.371094 163.777344 245.980469 C 162.6875 245.589844 161.609375 245.171875 160.539062 244.730469 C 159.472656 244.289062 158.414062 243.820312 157.367188 243.324219 C 156.320312 242.832031 155.289062 242.3125 154.269531 241.765625 C 153.246094 241.21875 152.242188 240.648438 151.25 240.054688 C 150.257812 239.460938 149.277344 238.84375 148.316406 238.199219 C 147.355469 237.558594 146.410156 236.890625 145.480469 236.203125 C 144.550781 235.511719 143.636719 234.800781 142.742188 234.066406 C 141.851562 233.332031 140.972656 232.578125 140.117188 231.800781 C 139.257812 231.023438 138.421875 230.226562 137.601562 229.410156 C 136.785156 228.589844 135.988281 227.753906 135.210938 226.898438 C 134.433594 226.039062 133.679688 225.164062 132.945312 224.269531 C 132.210938 223.375 131.496094 222.464844 130.808594 221.535156 C 130.121094 220.605469 129.453125 219.660156 128.8125 218.699219 C 128.167969 217.738281 127.550781 216.757812 126.953125 215.765625 C 126.359375 214.773438 125.789062 213.769531 125.242188 212.75 C 124.699219 211.726562 124.179688 210.695312 123.683594 209.648438 C 123.1875 208.605469 122.71875 207.546875 122.277344 206.476562 C 121.835938 205.410156 121.417969 204.332031 121.027344 203.242188 C 120.636719 202.152344 120.277344 201.054688 119.941406 199.945312 C 119.605469 198.839844 119.296875 197.726562 119.015625 196.605469 C 118.734375 195.480469 118.480469 194.351562 118.253906 193.21875 C 118.027344 192.085938 117.832031 190.945312 117.660156 189.800781 C 117.492188 188.65625 117.347656 187.507812 117.234375 186.355469 C 117.121094 185.207031 117.039062 184.054688 116.980469 182.898438 C 116.921875 181.742188 116.894531 180.585938 116.894531 179.429688 C 116.894531 178.273438 116.921875 177.117188 116.980469 175.960938 C 117.039062 174.804688 117.121094 173.652344 117.234375 172.5 C 117.347656 171.351562 117.492188 170.203125 117.660156 169.058594 C 117.832031 167.914062 118.027344 166.773438 118.253906 165.640625 C 118.480469 164.503906 118.734375 163.375 119.015625 162.253906 C 119.296875 161.132812 119.605469 160.019531 119.941406 158.910156 C 120.277344 157.804688 120.636719 156.707031 121.027344 155.617188 C 121.417969 154.527344 121.835938 153.449219 122.277344 152.378906 C 122.71875 151.3125 123.1875 150.253906 123.683594 149.207031 C 124.179688 148.164062 124.699219 147.128906 125.242188 146.109375 C 125.789062 145.089844 126.359375 144.082031 126.953125 143.089844 C 127.550781 142.097656 128.167969 141.121094 128.8125 140.160156 C 129.453125 139.199219 130.121094 138.253906 130.808594 137.324219 C 131.496094 136.394531 132.210938 135.484375 132.945312 134.589844 C 133.679688 133.695312 134.433594 132.820312 135.210938 131.960938 C 135.988281 131.105469 136.785156 130.265625 137.601562 129.449219 C 138.421875 128.632812 139.257812 127.835938 140.117188 127.058594 C 140.972656 126.28125 141.851562 125.523438 142.742188 124.792969 C 143.636719 124.058594 144.550781 123.347656 145.480469 122.65625 C 146.410156 121.96875 147.355469 121.300781 148.316406 120.660156 C 149.277344 120.015625 150.257812 119.398438 151.25 118.804688 C 152.242188 118.207031 153.246094 117.636719 154.269531 117.09375 C 155.289062 116.546875 156.320312 116.027344 157.367188 115.535156 C 158.414062 115.039062 159.472656 114.570312 160.539062 114.128906 C 161.609375 113.683594 162.6875 113.269531 163.777344 112.878906 C 164.867188 112.488281 165.964844 112.125 167.074219 111.789062 C 168.179688 111.453125 169.292969 111.144531 170.417969 110.867188 C 171.539062 110.585938 172.667969 110.332031 173.804688 110.105469 C 174.9375 109.878906 176.078125 109.683594 177.222656 109.511719 C 178.367188 109.34375 179.515625 109.199219 180.667969 109.085938 C 181.816406 108.972656 182.972656 108.890625 184.128906 108.832031 C 185.28125 108.773438 186.4375 108.746094 187.597656 108.746094 C 188.753906 108.746094 189.910156 108.773438 191.066406 108.832031 C 192.222656 108.890625 193.375 108.972656 194.527344 109.085938 C 195.675781 109.199219 196.824219 109.34375 197.96875 109.511719 C 199.113281 109.683594 200.253906 109.878906 201.390625 110.105469 C 202.523438 110.332031 203.652344 110.585938 204.773438 110.867188 C 205.898438 111.144531 207.011719 111.453125 208.121094 111.789062 C 209.226562 112.125 210.324219 112.488281 211.414062 112.878906 C 212.503906 113.269531 213.582031 113.683594 214.652344 114.128906 C 215.722656 114.570312 216.777344 115.039062 217.824219 115.535156 C 218.871094 116.027344 219.902344 116.546875 220.925781 117.09375 C 221.945312 117.636719 222.949219 118.207031 223.945312 118.804688 C 224.9375 119.398438 225.914062 120.015625 226.875 120.660156 C 227.835938 121.300781 228.78125 121.96875 229.710938 122.65625 C 230.640625 123.347656 231.554688 124.058594 232.449219 124.792969 C 233.34375 125.523438 234.21875 126.28125 235.074219 127.058594 C 235.933594 127.835938 236.769531 128.632812 237.589844 129.449219 C 238.40625 130.265625 239.203125 131.105469 239.980469 131.960938 C 240.757812 132.820312 241.515625 133.695312 242.25 134.589844 C 242.984375 135.484375 243.695312 136.394531 244.382812 137.324219 C 245.074219 138.253906 245.738281 139.199219 246.382812 140.160156 C 247.023438 141.121094 247.644531 142.097656 248.238281 143.089844 C 248.832031 144.082031 249.402344 145.089844 249.949219 146.109375 C 250.492188 147.128906 251.015625 148.164062 251.507812 149.207031 C 252.003906 150.253906 252.472656 151.3125 252.914062 152.378906 C 253.359375 153.449219 253.773438 154.527344 254.164062 155.617188 C 254.554688 156.707031 254.917969 157.804688 255.253906 158.910156 C 255.589844 160.019531 255.898438 161.132812 256.179688 162.253906 C 256.460938 163.375 256.710938 164.503906 256.9375 165.640625 C 257.164062 166.773438 257.363281 167.914062 257.53125 169.058594 C 257.703125 170.203125 257.84375 171.351562 257.957031 172.5 C 258.070312 173.652344 258.15625 174.804688 258.210938 175.960938 C 258.269531 177.117188 258.296875 178.273438 258.296875 179.429688 Z M 258.296875 179.429688 " fill-opacity="1" fill-rule="nonzero"/><path fill="#f4a40e" d="M 187.597656 108.746094 C 205.105469 108.746094 221.125 115.113281 233.476562 125.652344 C 223.523438 120.308594 212.144531 117.273438 200.058594 117.273438 C 161.011719 117.273438 129.355469 148.917969 129.355469 187.953125 C 129.355469 209.484375 138.992188 228.765625 154.179688 241.730469 C 131.988281 229.808594 116.894531 206.382812 116.894531 179.429688 C 116.894531 140.394531 148.546875 108.746094 187.597656 108.746094 Z M 187.597656 108.746094 " fill-opacity="1" fill-rule="evenodd"/><path fill="#64b5f6" d="M 234.589844 232.230469 C 222.097656 243.351562 205.636719 250.113281 187.59375 250.113281 C 169.554688 250.113281 153.09375 243.351562 140.601562 232.234375 C 149.25 215.011719 167.097656 203.117188 187.59375 203.117188 C 208.09375 203.117188 225.941406 215.007812 234.589844 232.230469 Z M 234.589844 232.230469 " fill-opacity="1" fill-rule="evenodd"/><path fill="#42a5f5" d="M 154.175781 241.726562 L 154.125 241.699219 C 153.839844 241.546875 153.550781 241.390625 153.269531 241.230469 L 152.964844 241.058594 C 152.757812 240.945312 152.554688 240.828125 152.351562 240.710938 L 152.03125 240.527344 C 151.773438 240.375 151.515625 240.222656 151.257812 240.070312 L 150.867188 239.832031 L 150.394531 239.539062 L 149.925781 239.25 C 149.714844 239.117188 149.503906 238.980469 149.292969 238.847656 L 148.828125 238.542969 L 148.476562 238.308594 C 148.152344 238.09375 147.824219 237.871094 147.503906 237.648438 L 147.378906 237.5625 C 147.195312 237.4375 147.011719 237.308594 146.832031 237.179688 L 146.609375 237.023438 C 146.046875 236.621094 145.488281 236.210938 144.933594 235.792969 L 144.71875 235.628906 C 144.15625 235.199219 143.597656 234.757812 143.046875 234.3125 L 142.910156 234.199219 C 142.347656 233.738281 141.789062 233.269531 141.238281 232.789062 L 141.140625 232.707031 C 140.960938 232.550781 140.78125 232.390625 140.601562 232.234375 C 141.171875 231.097656 141.78125 229.988281 142.429688 228.902344 C 145.808594 233.644531 149.757812 237.953125 154.175781 241.726562 Z M 154.175781 241.726562 " fill-opacity="1" fill-rule="evenodd"/><path fill="#42a5f5" d="M 234.589844 232.230469 C 232.410156 234.171875 230.109375 235.980469 227.699219 237.644531 C 220.816406 218.9375 203.550781 205.136719 182.976562 203.324219 C 184.5 203.1875 186.039062 203.117188 187.597656 203.117188 C 208.09375 203.117188 225.941406 215.007812 234.589844 232.230469 Z M 234.589844 232.230469 " fill-opacity="1" fill-rule="evenodd"/><path fill="#ffd6bd" d="M 195.894531 140.640625 C 196.785156 140.910156 197.65625 141.226562 198.515625 141.582031 C 199.375 141.941406 200.214844 142.339844 201.03125 142.78125 C 201.851562 143.21875 202.648438 143.699219 203.417969 144.21875 C 204.191406 144.738281 204.9375 145.292969 205.65625 145.882812 C 206.371094 146.472656 207.058594 147.097656 207.714844 147.757812 C 208.371094 148.417969 208.992188 149.105469 209.582031 149.828125 C 210.171875 150.546875 210.722656 151.292969 211.238281 152.066406 C 211.75 152.84375 212.226562 153.640625 212.664062 154.460938 C 213.101562 155.28125 213.496094 156.121094 213.851562 156.980469 C 214.203125 157.839844 214.515625 158.714844 214.78125 159.605469 C 215.050781 160.496094 215.273438 161.398438 215.453125 162.3125 C 215.632812 163.222656 215.769531 164.140625 215.855469 165.066406 C 215.945312 165.992188 215.988281 166.921875 215.988281 167.851562 C 215.984375 168.78125 215.9375 169.707031 215.84375 170.632812 C 215.75 171.558594 215.613281 172.476562 215.429688 173.386719 C 215.246094 174.300781 215.019531 175.199219 214.746094 176.089844 C 214.472656 176.976562 214.160156 177.851562 213.800781 178.710938 C 213.445312 179.566406 213.046875 180.40625 212.605469 181.226562 C 212.164062 182.042969 211.683594 182.839844 211.167969 183.613281 C 210.648438 184.382812 210.09375 185.128906 209.503906 185.84375 C 208.910156 186.5625 208.285156 187.25 207.625 187.90625 C 206.96875 188.5625 206.277344 189.183594 205.558594 189.773438 C 204.835938 190.359375 204.089844 190.910156 203.316406 191.425781 C 202.539062 191.941406 201.742188 192.417969 200.921875 192.855469 C 200.101562 193.289062 199.261719 193.683594 198.398438 194.039062 C 197.539062 194.394531 196.664062 194.703125 195.773438 194.972656 C 194.882812 195.238281 193.980469 195.464844 193.070312 195.644531 C 192.15625 195.820312 191.238281 195.957031 190.3125 196.046875 C 189.386719 196.132812 188.457031 196.179688 187.527344 196.175781 C 186.597656 196.175781 185.671875 196.125 184.746094 196.03125 C 183.820312 195.941406 182.902344 195.800781 181.988281 195.617188 C 181.078125 195.433594 180.175781 195.207031 179.289062 194.933594 C 178.398438 194.664062 177.523438 194.347656 176.667969 193.992188 C 175.808594 193.632812 174.96875 193.234375 174.148438 192.792969 C 173.332031 192.355469 172.535156 191.875 171.761719 191.355469 C 170.992188 190.839844 170.246094 190.285156 169.527344 189.691406 C 168.8125 189.101562 168.125 188.476562 167.46875 187.816406 C 166.8125 187.15625 166.191406 186.46875 165.601562 185.75 C 165.011719 185.027344 164.460938 184.28125 163.945312 183.507812 C 163.429688 182.734375 162.957031 181.933594 162.519531 181.113281 C 162.082031 180.292969 161.6875 179.453125 161.332031 178.59375 C 160.980469 177.734375 160.667969 176.859375 160.398438 175.96875 C 160.132812 175.078125 159.90625 174.175781 159.730469 173.265625 C 159.550781 172.351562 159.414062 171.433594 159.324219 170.507812 C 159.238281 169.582031 159.191406 168.652344 159.195312 167.722656 C 159.199219 166.792969 159.246094 165.867188 159.339844 164.941406 C 159.429688 164.015625 159.570312 163.097656 159.753906 162.1875 C 159.9375 161.277344 160.164062 160.375 160.4375 159.488281 C 160.707031 158.597656 161.023438 157.722656 161.382812 156.867188 C 161.738281 156.007812 162.136719 155.167969 162.578125 154.351562 C 163.019531 153.53125 163.496094 152.734375 164.015625 151.964844 C 164.535156 151.191406 165.089844 150.445312 165.679688 149.730469 C 166.273438 149.011719 166.898438 148.324219 167.558594 147.667969 C 168.214844 147.011719 168.90625 146.390625 169.625 145.804688 C 170.347656 145.214844 171.09375 144.664062 171.867188 144.148438 C 172.640625 143.632812 173.441406 143.15625 174.261719 142.722656 C 175.082031 142.285156 175.921875 141.890625 176.78125 141.535156 C 177.644531 141.183594 178.519531 140.871094 179.410156 140.601562 C 180.300781 140.335938 181.199219 140.113281 182.113281 139.933594 C 183.027344 139.753906 183.945312 139.617188 184.871094 139.53125 C 185.796875 139.441406 186.722656 139.398438 187.65625 139.398438 C 188.585938 139.402344 189.511719 139.449219 190.4375 139.542969 C 191.363281 139.636719 192.28125 139.773438 193.191406 139.957031 C 194.105469 140.140625 195.003906 140.367188 195.894531 140.640625 Z M 195.894531 140.640625 " fill-opacity="1" fill-rule="nonzero"/><path fill="#f9c6aa" d="M 187.597656 139.410156 C 186.273438 139.410156 184.976562 139.503906 183.703125 139.675781 C 197.542969 141.574219 208.207031 153.441406 208.207031 167.796875 C 208.207031 182.15625 197.542969 194.023438 183.703125 195.921875 C 184.976562 196.09375 186.273438 196.1875 187.597656 196.1875 C 203.277344 196.1875 215.992188 183.476562 215.992188 167.796875 C 215.992188 152.121094 203.277344 139.410156 187.597656 139.410156 Z M 187.597656 139.410156 " fill-opacity="1" fill-rule="evenodd"/></svg>