<svg xmlns="http://www.w3.org/2000/svg" xmlns:xlink="http://www.w3.org/1999/xlink" width="500" zoomAndPan="magnify" viewBox="0 0 375 374.999991" height="500" preserveAspectRatio="xMidYMid meet" version="1.0"><defs><clipPath id="0909c8794e"><path d="M 53.671875 38 L 321.421875 38 L 321.421875 375 L 53.671875 375 Z M 53.671875 38 " clip-rule="nonzero"/></clipPath><clipPath id="7d4e6f4f7e"><path d="M 53.671875 38 L 321.421875 38 L 321.421875 375 L 53.671875 375 Z M 53.671875 38 " clip-rule="nonzero"/></clipPath></defs><g clip-path="url(#0909c8794e)"><path fill="#a55724" d="M 244.332031 38.40625 L 315.960938 38.40625 C 318.957031 38.40625 321.398438 40.847656 321.402344 43.84375 C 321.402344 95.675781 321.402344 295.625 321.402344 335.253906 C 321.402344 342.695312 321.402344 358.613281 321.402344 366.050781 L 321.402344 368.699219 C 321.402344 371.691406 318.964844 374.132812 315.96875 374.140625 L 59.144531 374.601562 C 57.644531 374.605469 56.351562 374.070312 55.289062 373.011719 C 54.230469 371.953125 53.691406 370.660156 53.691406 369.160156 L 53.691406 43.847656 C 53.691406 40.851562 56.136719 38.40625 59.132812 38.40625 Z M 244.332031 38.40625 " fill-opacity="1" fill-rule="evenodd"/></g><path fill="#e5e9f7" d="M 244.332031 55.941406 L 298.417969 55.941406 C 301.414062 55.941406 303.863281 58.386719 303.863281 61.382812 L 303.863281 351.152344 C 303.863281 354.152344 301.414062 356.59375 298.417969 356.59375 L 76.675781 356.59375 C 73.675781 356.59375 71.234375 354.152344 71.234375 351.152344 L 71.234375 61.382812 C 71.234375 58.386719 73.675781 55.941406 76.675781 55.941406 Z M 244.332031 55.941406 " fill-opacity="1" fill-rule="evenodd"/><path fill="#45dea6" d="M 107.636719 223.519531 L 136.988281 223.519531 C 140.960938 223.519531 144.203125 226.761719 144.203125 230.730469 L 144.203125 260.074219 C 144.203125 264.046875 140.960938 267.285156 136.988281 267.285156 L 107.636719 267.285156 C 103.664062 267.285156 100.421875 264.046875 100.421875 260.074219 L 100.421875 230.730469 C 100.421875 226.761719 103.664062 223.519531 107.636719 223.519531 Z M 107.636719 223.519531 " fill-opacity="1" fill-rule="evenodd"/><path fill="#45dea6" d="M 107.636719 291.203125 L 136.988281 291.203125 C 140.960938 291.203125 144.203125 294.445312 144.203125 298.414062 L 144.203125 327.757812 C 144.203125 331.730469 140.960938 334.96875 136.988281 334.96875 L 107.636719 334.96875 C 103.664062 334.96875 100.421875 331.730469 100.421875 327.757812 L 100.421875 298.414062 C 100.421875 294.445312 103.664062 291.203125 107.636719 291.203125 Z M 107.636719 291.203125 " fill-opacity="1" fill-rule="evenodd"/><path fill="#292e3c" d="M 170.429688 306.726562 C 167.769531 306.726562 165.613281 304.570312 165.613281 301.910156 C 165.613281 299.253906 167.769531 297.097656 170.429688 297.097656 L 273.445312 297.097656 C 276.101562 297.097656 278.257812 299.253906 278.257812 301.910156 C 278.257812 304.570312 276.101562 306.726562 273.445312 306.726562 Z M 170.429688 261.390625 C 167.769531 261.390625 165.613281 259.238281 165.613281 256.578125 C 165.613281 253.921875 167.769531 251.765625 170.429688 251.765625 L 273.445312 251.765625 C 276.101562 251.765625 278.257812 253.921875 278.257812 256.578125 C 278.257812 259.238281 276.101562 261.390625 273.445312 261.390625 Z M 170.429688 239.042969 C 167.769531 239.042969 165.613281 236.886719 165.613281 234.226562 C 165.613281 231.570312 167.769531 229.414062 170.429688 229.414062 L 273.445312 229.414062 C 276.101562 229.414062 278.257812 231.570312 278.257812 234.226562 C 278.257812 236.886719 276.101562 239.042969 273.445312 239.042969 Z M 170.429688 329.074219 C 167.769531 329.074219 165.613281 326.917969 165.613281 324.261719 C 165.613281 321.605469 167.769531 319.449219 170.429688 319.449219 L 273.445312 319.449219 C 276.101562 319.449219 278.257812 321.605469 278.257812 324.261719 C 278.257812 326.917969 276.101562 329.074219 273.445312 329.074219 Z M 170.429688 329.074219 " fill-opacity="1" fill-rule="evenodd"/><path fill="#ffc807" d="M 244.332031 52.097656 L 244.332031 66.574219 C 244.332031 68.585938 242.6875 70.230469 240.671875 70.230469 L 134.421875 70.230469 C 132.40625 70.230469 130.761719 68.585938 130.761719 66.574219 L 130.761719 42.253906 C 130.761719 32.28125 138.925781 24.121094 148.902344 24.121094 L 160.398438 24.121094 C 162.246094 24.121094 163.78125 22.773438 164.027344 20.945312 C 165.574219 9.347656 175.519531 0.398438 187.546875 0.398438 C 199.578125 0.398438 209.519531 9.347656 211.070312 20.945312 C 211.3125 22.773438 212.851562 24.121094 214.695312 24.121094 L 226.191406 24.121094 C 236.167969 24.121094 244.332031 32.28125 244.332031 42.253906 Z M 244.332031 52.097656 " fill-opacity="1" fill-rule="evenodd"/><path fill="#e5e9f7" d="M 187.546875 15.601562 C 189.882812 15.601562 192.011719 16.558594 193.554688 18.097656 L 193.574219 18.117188 C 195.113281 19.660156 196.070312 21.785156 196.070312 24.121094 C 196.070312 26.46875 195.113281 28.601562 193.574219 30.144531 C 192.03125 31.683594 189.898438 32.640625 187.546875 32.640625 C 185.195312 32.640625 183.0625 31.683594 181.519531 30.144531 C 181.390625 30.015625 181.269531 29.878906 181.160156 29.738281 C 179.832031 28.230469 179.023438 26.257812 179.023438 24.121094 C 179.023438 21.785156 179.984375 19.65625 181.53125 18.105469 L 181.519531 18.097656 C 183.0625 16.554688 185.195312 15.601562 187.546875 15.601562 Z M 187.546875 15.601562 " fill-opacity="1" fill-rule="evenodd"/><path fill="#f14b4e" d="M 109.984375 315.863281 C 108.074219 314.023438 108.015625 310.988281 109.851562 309.078125 C 111.691406 307.167969 114.730469 307.109375 116.640625 308.945312 L 120.277344 312.445312 L 127.609375 303.613281 C 129.300781 301.570312 132.332031 301.28125 134.378906 302.972656 C 136.425781 304.664062 136.710938 307.699219 135.019531 309.742188 L 124.382812 322.558594 L 124.375 322.554688 C 124.300781 322.644531 124.222656 322.734375 124.136719 322.824219 C 122.296875 324.734375 119.257812 324.792969 117.347656 322.953125 Z M 109.984375 248.179688 C 108.074219 246.34375 108.015625 243.304688 109.851562 241.394531 C 111.691406 239.484375 114.730469 239.425781 116.640625 241.261719 L 120.277344 244.761719 L 127.609375 235.929688 C 129.300781 233.886719 132.332031 233.597656 134.378906 235.292969 C 136.425781 236.984375 136.710938 240.015625 135.019531 242.058594 L 124.382812 254.875 L 124.375 254.871094 C 124.300781 254.960938 124.222656 255.050781 124.136719 255.140625 C 122.296875 257.050781 119.257812 257.109375 117.347656 255.269531 Z M 109.984375 248.179688 " fill-opacity="1" fill-rule="evenodd"/><g clip-path="url(#7d4e6f4f7e)"><path fill="#8c4924" d="M 312.710938 38.40625 L 315.960938 38.40625 C 318.957031 38.40625 321.402344 40.847656 321.402344 43.84375 C 321.402344 95.675781 321.402344 295.628906 321.402344 335.253906 C 321.402344 342.695312 321.402344 358.613281 321.402344 366.050781 L 321.402344 368.699219 C 321.402344 371.691406 318.964844 374.132812 315.96875 374.140625 L 59.144531 374.601562 C 57.644531 374.605469 56.351562 374.070312 55.289062 373.011719 C 54.226562 371.953125 53.691406 370.660156 53.691406 369.160156 L 53.691406 368.730469 L 272.535156 368.335938 L 306.492188 368.273438 L 307.28125 368.273438 C 310.273438 368.265625 312.710938 365.824219 312.710938 362.832031 L 312.710938 360.1875 C 312.710938 352.746094 312.710938 336.832031 312.710938 329.390625 Z M 312.710938 38.40625 " fill-opacity="1" fill-rule="evenodd"/></g><path fill="#c5cff2" d="M 297.011719 55.941406 L 298.417969 55.941406 C 301.414062 55.941406 303.859375 58.386719 303.859375 61.382812 L 303.859375 351.152344 C 303.859375 354.148438 301.414062 356.59375 298.417969 356.59375 L 76.675781 356.59375 C 73.996094 356.59375 71.753906 354.640625 71.3125 352.082031 L 291.648438 352.082031 C 294.644531 352.082031 297.089844 349.636719 297.089844 346.640625 L 297.089844 56.871094 C 297.089844 56.554688 297.0625 56.242188 297.011719 55.941406 Z M 297.011719 55.941406 " fill-opacity="1" fill-rule="evenodd"/><path fill="#feb602" d="M 244.332031 52.097656 L 244.332031 66.574219 C 244.332031 68.585938 242.6875 70.230469 240.671875 70.230469 L 134.421875 70.230469 C 132.734375 70.230469 131.308594 69.082031 130.886719 67.523438 L 233.226562 67.523438 C 235.242188 67.523438 236.882812 65.878906 236.882812 63.867188 L 236.882812 39.546875 C 236.882812 33.144531 233.523438 27.492188 228.480469 24.265625 C 237.386719 25.398438 244.332031 33.054688 244.332031 42.253906 Z M 203.679688 18.578125 C 204.503906 22.882812 207.878906 24.691406 213.808594 24.011719 C 212.527344 23.699219 211.507812 22.710938 211.164062 21.414062 C 211.121094 21.261719 211.089844 21.105469 211.070312 20.945312 C 209.707031 10.753906 201.863281 2.605469 191.816406 0.78125 C 198.117188 4.363281 202.621094 10.75 203.621094 18.238281 L 203.664062 18.5 Z M 203.683594 18.578125 L 203.679688 18.578125 Z M 203.683594 18.578125 " fill-opacity="1" fill-rule="evenodd"/><path fill="#c5cff2" d="M 181.519531 18.097656 Z M 190.03125 30.722656 C 187.679688 30.722656 185.546875 29.765625 184.003906 28.226562 L 183.640625 27.820312 C 182.3125 26.3125 181.507812 24.339844 181.507812 22.203125 C 181.507812 20.027344 182.339844 18.03125 183.703125 16.515625 C 182.894531 16.925781 182.15625 17.460938 181.53125 18.105469 C 179.984375 19.65625 179.023438 21.785156 179.023438 24.121094 C 179.023438 26.257812 179.832031 28.230469 181.160156 29.738281 L 181.519531 30.144531 C 183.0625 31.683594 185.195312 32.640625 187.546875 32.640625 C 189.898438 32.640625 192.03125 31.683594 193.574219 30.144531 C 193.6875 30.027344 193.800781 29.910156 193.90625 29.789062 C 192.742188 30.386719 191.425781 30.722656 190.03125 30.722656 Z M 190.03125 30.722656 " fill-opacity="1" fill-rule="evenodd"/><path fill="#1bbd86" d="M 137.546875 223.542969 C 141.261719 223.828125 144.203125 226.945312 144.203125 230.730469 L 144.203125 260.074219 C 144.203125 264.046875 140.960938 267.285156 136.988281 267.285156 L 107.632812 267.285156 C 105.15625 267.285156 102.960938 266.023438 101.660156 264.105469 C 101.84375 264.121094 102.03125 264.128906 102.21875 264.128906 L 131.570312 264.128906 C 135.546875 264.128906 138.785156 260.890625 138.785156 256.917969 L 138.785156 227.574219 C 138.785156 226.082031 138.328125 224.691406 137.546875 223.542969 Z M 137.546875 291.226562 C 141.261719 291.507812 144.203125 294.628906 144.203125 298.414062 L 144.203125 327.757812 C 144.203125 331.730469 140.960938 334.96875 136.988281 334.96875 L 107.632812 334.96875 C 105.15625 334.96875 102.960938 333.707031 101.660156 331.789062 C 101.84375 331.804688 102.03125 331.8125 102.21875 331.8125 L 131.570312 331.8125 C 135.546875 331.8125 138.785156 328.570312 138.785156 324.601562 L 138.785156 295.257812 C 138.785156 293.765625 138.328125 292.375 137.546875 291.226562 Z M 137.546875 291.226562 " fill-opacity="1" fill-rule="evenodd"/><path fill="#45dea6" d="M 107.636719 88.15625 L 136.988281 88.15625 C 140.960938 88.15625 144.203125 91.394531 144.203125 95.367188 L 144.203125 124.710938 C 144.203125 128.679688 140.960938 131.917969 136.988281 131.917969 L 107.636719 131.917969 C 103.664062 131.917969 100.421875 128.679688 100.421875 124.710938 L 100.421875 95.367188 C 100.421875 91.394531 103.664062 88.15625 107.636719 88.15625 Z M 107.636719 88.15625 " fill-opacity="1" fill-rule="evenodd"/><path fill="#45dea6" d="M 107.636719 155.839844 L 136.988281 155.839844 C 140.960938 155.839844 144.203125 159.078125 144.203125 163.046875 L 144.203125 192.390625 C 144.203125 196.363281 140.960938 199.601562 136.988281 199.601562 L 107.636719 199.601562 C 103.664062 199.601562 100.421875 196.363281 100.421875 192.390625 L 100.421875 163.046875 C 100.421875 159.078125 103.664062 155.839844 107.636719 155.839844 Z M 107.636719 155.839844 " fill-opacity="1" fill-rule="evenodd"/><path fill="#292e3c" d="M 170.429688 171.359375 C 167.769531 171.359375 165.613281 169.203125 165.613281 166.546875 C 165.613281 163.886719 167.769531 161.730469 170.429688 161.730469 L 273.445312 161.730469 C 276.101562 161.730469 278.257812 163.886719 278.257812 166.546875 C 278.257812 169.203125 276.101562 171.359375 273.445312 171.359375 Z M 170.429688 126.027344 C 167.769531 126.027344 165.613281 123.871094 165.613281 121.210938 C 165.613281 118.554688 167.769531 116.398438 170.429688 116.398438 L 273.445312 116.398438 C 276.101562 116.398438 278.257812 118.554688 278.257812 121.210938 C 278.257812 123.871094 276.101562 126.027344 273.445312 126.027344 Z M 170.429688 103.675781 C 167.769531 103.675781 165.613281 101.519531 165.613281 98.863281 C 165.613281 96.203125 167.769531 94.046875 170.429688 94.046875 L 273.445312 94.046875 C 276.101562 94.046875 278.257812 96.203125 278.257812 98.863281 C 278.257812 101.519531 276.101562 103.675781 273.445312 103.675781 Z M 170.429688 193.710938 C 167.769531 193.710938 165.613281 191.554688 165.613281 188.894531 C 165.613281 186.238281 167.769531 184.082031 170.429688 184.082031 L 273.445312 184.082031 C 276.101562 184.082031 278.257812 186.238281 278.257812 188.894531 C 278.257812 191.554688 276.101562 193.710938 273.445312 193.710938 Z M 170.429688 193.710938 " fill-opacity="1" fill-rule="evenodd"/><path fill="#f14b4e" d="M 109.984375 180.496094 C 108.074219 178.660156 108.015625 175.621094 109.851562 173.710938 C 111.691406 171.800781 114.730469 171.742188 116.640625 173.578125 L 120.277344 177.082031 L 127.609375 168.246094 C 129.300781 166.203125 132.332031 165.917969 134.378906 167.609375 C 136.425781 169.300781 136.710938 172.332031 135.019531 174.375 L 124.382812 187.191406 L 124.375 187.1875 C 124.300781 187.277344 124.222656 187.367188 124.136719 187.457031 C 122.296875 189.367188 119.257812 189.425781 117.347656 187.585938 Z M 109.984375 112.8125 C 108.074219 110.976562 108.015625 107.9375 109.851562 106.027344 C 111.691406 104.117188 114.730469 104.058594 116.640625 105.898438 L 120.277344 109.398438 L 127.609375 100.566406 C 129.300781 98.519531 132.332031 98.234375 134.378906 99.925781 C 136.425781 101.617188 136.710938 104.648438 135.019531 106.695312 L 124.382812 119.511719 L 124.375 119.503906 C 124.300781 119.597656 124.222656 119.6875 124.136719 119.773438 C 122.296875 121.683594 119.257812 121.742188 117.347656 119.902344 Z M 109.984375 112.8125 " fill-opacity="1" fill-rule="evenodd"/><path fill="#1bbd86" d="M 137.546875 88.175781 C 141.261719 88.460938 144.203125 91.582031 144.203125 95.367188 L 144.203125 124.710938 C 144.203125 128.679688 140.960938 131.917969 136.988281 131.917969 L 107.632812 131.917969 C 105.15625 131.917969 102.960938 130.65625 101.660156 128.742188 C 101.84375 128.757812 102.03125 128.761719 102.21875 128.761719 L 131.570312 128.761719 C 135.546875 128.761719 138.785156 125.523438 138.785156 121.550781 L 138.785156 92.207031 C 138.785156 90.714844 138.328125 89.328125 137.546875 88.175781 Z M 137.546875 155.859375 C 141.261719 156.144531 144.203125 159.265625 144.203125 163.046875 L 144.203125 192.390625 C 144.203125 196.363281 140.960938 199.601562 136.988281 199.601562 L 107.632812 199.601562 C 105.15625 199.601562 102.960938 198.339844 101.660156 196.425781 C 101.84375 196.4375 102.03125 196.445312 102.21875 196.445312 L 131.570312 196.445312 C 135.546875 196.445312 138.785156 193.207031 138.785156 189.234375 L 138.785156 159.890625 C 138.785156 158.398438 138.328125 157.011719 137.546875 155.859375 Z M 137.546875 155.859375 " fill-opacity="1" fill-rule="evenodd"/></svg>